<?xml version="1.0" standalone="no"?>
<!DOCTYPE svg PUBLIC "-//W3C//DTD SVG 20010904//EN"
 "http://www.w3.org/TR/2001/REC-SVG-20010904/DTD/svg10.dtd">
<svg version="1.0" xmlns="http://www.w3.org/2000/svg"
 width="1792.000000pt" height="1024.000000pt" viewBox="0 0 1792.000000 1024.000000"
 preserveAspectRatio="xMidYMid meet">

<g transform="translate(0.000000,1024.000000) scale(0.100000,-0.100000)"
fill="#000000" stroke="none">
<path d="M9260 8910 c-20 -20 -20 -33 -20 -810 l0 -790 -370 0 -370 0 0 193
c0 158 -3 197 -16 215 l-15 22 -409 0 c-399 0 -410 -1 -420 -20 -12 -23 0 -54
26 -64 8 -3 180 -6 381 -6 l366 0 -7 -37 c-3 -21 -6 -98 -6 -170 l0 -132
-1102 -3 -1103 -3 -57 -22 c-74 -28 -134 -70 -189 -131 -94 -104 -129 -206
-129 -374 l0 -107 -467 -3 c-460 -3 -469 -3 -509 -25 -99 -53 -153 -127 -161
-220 -9 -109 56 -220 157 -267 43 -20 62 -21 513 -24 l467 -3 0 -270 0 -269
-322 0 c-296 1 -324 0 -335 -16 -19 -25 -16 -41 9 -58 19 -14 68 -16 335 -16
l313 0 0 -609 c0 -478 -3 -610 -12 -613 -7 -2 -104 -2 -215 0 l-203 4 0 105
c0 57 -5 113 -10 124 -13 23 -68 26 -76 4 -3 -8 -9 -65 -12 -127 l-7 -113
-149 -5 c-122 -4 -151 -8 -159 -21 -14 -23 -2 -48 30 -60 16 -6 80 -10 143 -9
63 2 123 2 133 1 16 -1 17 -24 17 -343 0 -189 -3 -508 -7 -710 -6 -364 -6
-368 -27 -368 -32 0 -122 -56 -150 -93 -47 -62 -66 -117 -66 -198 0 -90 28
-157 90 -213 66 -60 116 -80 195 -81 96 0 152 23 212 89 80 87 104 201 66 311
-24 66 -111 156 -173 177 l-45 15 -3 703 c-1 387 1 707 6 712 4 4 101 5 215 1
l207 -6 0 -333 c0 -370 6 -427 61 -542 45 -93 133 -177 246 -233 l88 -44 1353
-3 1352 -2 0 -873 c0 -774 2 -875 16 -895 18 -26 37 -28 58 -6 14 14 16 99 16
782 0 422 3 818 7 880 l6 112 229 0 228 0 0 -218 c0 -181 3 -221 16 -240 l15
-22 1653 0 c1271 0 1655 3 1664 12 17 17 15 65 -4 72 -8 3 -540 7 -1182 8
-642 2 -1368 4 -1614 6 l-448 2 0 190 0 190 1048 2 1049 3 89 44 c136 68 234
182 267 311 l14 55 363 3 c248 1 368 6 377 13 16 14 17 51 1 67 -8 8 -68 12
-203 12 -106 0 -267 3 -358 7 l-167 6 0 154 0 153 98 2 c53 1 250 2 437 3
l340 1 56 26 c76 35 133 88 166 156 24 49 28 69 28 142 0 65 -5 96 -21 131
-26 56 -76 114 -126 145 -79 50 -120 54 -565 54 l-413 0 0 85 0 85 80 0 80 0
0 45 0 45 -80 0 -80 0 0 135 0 135 108 0 c104 0 109 1 121 24 10 18 10 29 2
44 -10 19 -22 22 -119 24 l-107 3 -3 498 -2 497 218 0 219 0 -5 -385 c-4 -345
-3 -387 12 -410 20 -31 50 -32 71 -2 14 19 15 71 15 407 l-1 385 136 5 c141 5
154 10 155 52 0 37 -38 48 -167 48 l-123 0 -1 48 c-4 245 -6 275 -25 289 -22
16 -26 16 -50 -1 -17 -13 -19 -30 -22 -175 l-3 -161 -215 0 -214 0 0 323 c0
258 -3 335 -15 382 -47 179 -215 336 -390 365 -37 6 -500 10 -1192 10 l-1133
0 0 800 c0 780 0 800 -19 810 -26 13 -28 13 -51 -10z m-2848 -1920 c28 -28 30
-36 25 -78 -7 -61 -41 -92 -100 -92 -100 1 -141 111 -66 174 44 38 101 36 141
-4z m401 19 c39 -18 62 -75 46 -117 -19 -50 -48 -72 -97 -72 -61 0 -102 40
-102 100 0 78 78 123 153 89z m436 -10 c48 -45 50 -104 5 -152 -19 -21 -34
-27 -65 -27 -51 0 -75 13 -94 50 -39 75 5 150 87 150 31 0 51 -6 67 -21z
m4443 -98 c37 -18 90 -55 118 -82 46 -44 89 -115 90 -146 0 -10 -417 -13
-2050 -13 -1127 0 -2050 3 -2050 8 0 19 62 112 101 151 48 48 140 98 203 111
22 4 824 7 1781 6 l1740 -1 67 -34z m-5872 -500 c0 -94 -3 -172 -7 -174 -5 -2
-215 -1 -469 2 l-461 6 -36 28 c-53 40 -70 79 -65 147 5 69 31 110 90 139 42
20 55 21 496 21 l452 0 0 -169z m6150 -1146 l0 -1305 -1834 0 c-1654 0 -1836
-2 -1850 -16 -21 -21 -20 -40 4 -64 20 -20 33 -20 1850 -20 l1830 0 0 -100 0
-100 -829 0 c-741 0 -831 -2 -845 -16 -19 -18 -21 -45 -4 -62 9 -9 211 -12
846 -12 l834 0 -7 -52 c-21 -154 -105 -276 -244 -352 -41 -22 -73 -30 -154
-37 -64 -6 -1071 -8 -2702 -6 -2877 5 -2639 -1 -2748 71 -75 50 -113 95 -156
185 -33 71 -36 84 -42 206 -8 165 -12 2962 -4 2975 4 7 1093 10 3031 10 l3024
0 0 -1305z m1005 -871 c88 -46 141 -166 115 -259 -19 -67 -60 -118 -121 -149
l-53 -26 -428 0 -428 0 0 230 0 231 438 -3 c421 -3 438 -4 477 -24z"/>
<path d="M8700 6014 c-204 -44 -349 -139 -460 -300 -62 -89 -102 -185 -125
-301 -23 -115 -17 -577 9 -668 43 -151 138 -297 249 -381 176 -133 385 -180
623 -139 240 42 453 224 540 462 l29 78 0 340 c0 332 -1 342 -24 410 -103 302
-363 500 -671 510 -66 2 -129 -2 -170 -11z m286 -399 c64 -28 123 -86 155
-151 24 -49 24 -52 24 -349 0 -296 0 -301 -24 -345 -29 -56 -95 -126 -141
-150 -51 -26 -146 -39 -207 -30 -113 18 -200 79 -251 175 l-27 50 -3 271 c-4
309 2 344 66 429 92 122 266 165 408 100z"/>
<path d="M7158 5933 c-30 -38 -85 -111 -124 -163 -195 -265 -381 -515 -447
-600 -40 -52 -92 -122 -115 -154 l-42 -59 0 -164 0 -163 405 0 405 0 2 -192 3
-193 198 -3 197 -2 0 195 0 195 130 0 130 0 0 175 0 175 -130 0 -130 0 0 510
0 510 -215 0 -214 0 -53 -67z m82 -738 l0 -215 -165 0 c-91 0 -165 3 -165 6 0
3 19 29 43 57 24 29 67 86 97 127 72 99 181 240 186 240 2 0 4 -97 4 -215z"/>
<path d="M10503 5913 c-107 -138 -690 -919 -702 -941 -6 -11 -14 -93 -17 -181
l-7 -161 406 0 407 0 2 -192 3 -193 192 -3 193 -2 2 192 3 193 133 3 132 3 0
174 0 175 -135 0 -135 0 0 510 0 510 -204 0 -204 0 -69 -87z m87 -718 l0 -214
-161 -3 c-89 -2 -162 -1 -163 2 -3 4 315 429 322 430 1 0 2 -97 2 -215z"/>
<path d="M6370 3930 c-24 -24 -24 -30 -6 -56 14 -18 32 -19 578 -20 310 -1
570 2 579 7 23 12 29 44 12 68 -14 21 -20 21 -579 21 -551 0 -564 0 -584 -20z"/>
<path d="M6367 3632 c-21 -23 -21 -36 -1 -56 14 -14 119 -16 1013 -16 762 0
1000 3 1009 12 15 15 15 51 0 66 -9 9 -247 12 -1008 12 -953 0 -998 -1 -1013
-18z"/>
<path d="M9857 3629 c-20 -27 -10 -58 21 -70 33 -13 72 12 72 46 0 44 -67 61
-93 24z"/>
<path d="M8770 8735 l0 -45 40 0 40 0 0 45 0 45 -40 0 -40 0 0 -45z"/>
<path d="M6717 8586 c-21 -22 -22 -49 -2 -66 13 -10 179 -14 783 -17 422 -3
814 -1 872 4 l105 8 3 31 c2 22 -2 33 -13 38 -9 3 -402 9 -873 13 -805 6 -858
5 -875 -11z"/>
<path d="M8770 8520 l0 -50 40 0 40 0 0 50 0 50 -40 0 -40 0 0 -50z"/>
<path d="M5476 8535 c-93 -33 -155 -118 -161 -220 -4 -65 -8 -71 -100 -143
-38 -30 -76 -62 -82 -70 -18 -22 -18 -493 -1 -510 18 -18 56 -14 68 7 6 12 10
108 11 238 l0 218 72 57 72 58 34 -36 c53 -55 87 -68 166 -68 82 0 115 14 175
76 39 41 70 113 70 163 0 54 -32 125 -75 168 -70 70 -162 93 -249 62z m155
-108 c91 -60 88 -189 -6 -247 -124 -77 -271 82 -190 206 41 63 134 83 196 41z"/>
<path d="M9727 8422 c-22 -24 -22 -46 0 -63 23 -20 1445 -19 1468 1 22 18 19
46 -7 64 -20 14 -106 16 -734 16 -676 0 -712 -1 -727 -18z"/>
<path d="M11325 8420 c-15 -17 -16 -24 -7 -45 l12 -25 174 0 c159 0 176 2 185
18 7 12 6 26 -2 43 -12 24 -14 24 -178 27 -155 2 -167 1 -184 -18z"/>
<path d="M11822 8398 c3 -42 4 -43 47 -50 24 -4 48 -5 52 -2 5 3 9 25 9 50 l0
44 -56 0 -55 0 3 -42z"/>
<path d="M12078 8430 c-18 -11 -23 -36 -12 -64 5 -14 33 -16 210 -16 l204 0 6
26 c5 17 1 31 -10 42 -14 14 -44 17 -199 20 -114 1 -189 -2 -199 -8z"/>
<path d="M6214 8252 c-22 -15 -24 -42 -4 -62 20 -20 38 -20 1133 -20 852 0
1116 3 1125 12 15 15 15 51 0 66 -9 9 -273 12 -1127 12 -614 0 -1121 -4 -1127
-8z"/>
<path d="M8770 8185 l0 -45 40 0 40 0 0 45 0 45 -40 0 -40 0 0 -45z"/>
<path d="M10047 8163 c-11 -11 -8 -58 5 -71 9 -9 111 -12 398 -12 369 0 388 1
404 19 10 11 16 30 14 43 l-3 23 -406 3 c-223 1 -408 -1 -412 -5z"/>
<path d="M11000 8151 c-24 -45 -5 -81 42 -81 38 0 56 41 33 76 -19 29 -60 32
-75 5z"/>
<path d="M8770 7985 l0 -45 40 0 40 0 0 45 0 45 -40 0 -40 0 0 -45z"/>
<path d="M6216 7994 c-9 -8 -16 -24 -16 -33 0 -47 -8 -46 720 -46 728 0 720
-1 720 46 0 9 -7 25 -16 33 -14 14 -91 16 -704 16 -613 0 -690 -2 -704 -16z"/>
<path d="M7957 7992 c-10 -10 -17 -25 -17 -33 0 -36 19 -39 270 -39 178 0 249
3 258 12 17 17 15 44 -4 62 -13 14 -50 16 -253 16 -218 0 -239 -2 -254 -18z"/>
<path d="M9726 7984 c-19 -18 -20 -28 -6 -55 10 -18 23 -19 224 -19 194 0 214
2 229 18 23 25 21 38 -5 56 -33 24 -419 24 -442 0z"/>
<path d="M10496 7984 c-19 -18 -21 -45 -4 -62 16 -16 1159 -17 1189 -2 21 12
25 50 7 68 -9 9 -155 12 -594 12 -516 0 -584 -2 -598 -16z"/>
<path d="M12461 7909 c-118 -36 -211 -163 -211 -289 0 -112 80 -231 188 -281
l52 -24 0 -275 c0 -233 2 -279 16 -298 8 -12 23 -22 33 -22 41 0 43 17 42 313
l-2 283 54 17 c66 21 116 58 155 117 42 63 55 111 50 188 -6 109 -68 203 -165
252 -52 26 -158 36 -212 19z"/>
<path d="M8768 7784 c-2 -25 -2 -46 -1 -48 1 -1 20 0 42 2 l41 4 0 44 0 44
-39 0 -39 0 -4 -46z"/>
<path d="M7204 7736 c-3 -8 -4 -29 -2 -48 3 -32 5 -33 51 -36 l47 -3 0 50 0
51 -45 0 c-30 0 -47 -5 -51 -14z"/>
<path d="M9722 7738 c-16 -16 -15 -53 2 -68 11 -9 227 -13 874 -17 l859 -6 16
24 c22 30 21 35 -3 59 -20 20 -33 20 -878 20 -654 0 -861 -3 -870 -12z"/>
<path d="M7420 7694 l0 -45 46 3 47 3 1 43 1 42 -47 0 -48 0 0 -46z"/>
<path d="M11610 7700 l0 -40 65 0 65 0 0 40 0 40 -65 0 -65 0 0 -40z"/>
<path d="M11860 7700 l0 -40 65 0 65 0 0 40 0 40 -65 0 -65 0 0 -40z"/>
<path d="M5508 7663 c-27 -7 -34 -50 -13 -73 18 -19 34 -20 550 -20 400 0 534
3 543 12 19 19 15 66 -7 78 -19 10 -1035 13 -1073 3z"/>
<path d="M6737 7664 c-4 -4 -7 -25 -7 -46 l0 -38 49 0 48 0 -1 43 c-1 42 -1
42 -41 45 -23 2 -44 0 -48 -4z"/>
<path d="M6960 7620 l0 -51 43 3 42 3 0 45 0 45 -42 3 -43 3 0 -51z"/>
<path d="M8887 7663 c-4 -3 -7 -24 -7 -45 l0 -38 45 0 45 0 0 45 0 45 -38 0
c-21 0 -42 -3 -45 -7z"/>
<path d="M5206 7245 c-32 -24 -73 -54 -92 -65 l-34 -21 41 -77 c46 -88 60
-102 105 -102 23 0 33 -5 37 -20 7 -26 57 -28 64 -2 2 10 14 22 26 27 31 14
31 66 0 80 -22 9 -23 16 -23 111 0 84 -3 103 -16 108 -32 12 -52 5 -108 -39z
m54 -126 l0 -61 -37 7 c-21 4 -46 8 -55 7 -36 -2 -18 35 35 71 28 20 53 36 55
36 1 1 2 -27 2 -60z"/>
<path d="M4996 5834 c-24 -63 5 -76 157 -72 l122 3 3 43 3 42 -139 0 c-118 0
-141 -2 -146 -16z"/>
<path d="M5390 5811 c0 -26 5 -41 15 -45 9 -3 78 -3 155 1 l140 6 0 39 0 38
-155 0 -155 0 0 -39z"/>
<path d="M5299 5033 c-14 -36 -4 -340 12 -360 16 -18 43 -16 62 5 24 27 25
326 1 360 -22 32 -62 29 -75 -5z"/>
<path d="M12357 4764 c-10 -10 -9 -56 1 -72 6 -9 38 -12 123 -10 l114 3 0 40
0 40 -116 3 c-63 1 -118 -1 -122 -4z"/>
<path d="M12714 4756 c-3 -8 -4 -27 -2 -43 l3 -28 110 0 110 0 3 34 c2 20 -2
37 -10 42 -7 5 -57 9 -111 9 -75 0 -99 -3 -103 -14z"/>
<path d="M12578 3263 c-88 -91 -97 -111 -73 -163 19 -41 36 -50 102 -50 38 0
42 -3 45 -26 4 -35 31 -53 56 -38 15 10 17 31 20 169 3 170 -1 185 -47 185
-21 0 -46 -19 -103 -77z m60 -131 c-10 -2 -27 -2 -38 0 -19 3 -18 6 13 49 l32
47 5 -47 c4 -38 2 -47 -12 -49z"/>
<path d="M6149 2667 c-145 -41 -219 -210 -150 -345 44 -85 122 -132 218 -132
138 1 236 103 236 245 0 159 -152 274 -304 232z m161 -135 c51 -51 61 -101 31
-156 -57 -108 -189 -115 -251 -14 -37 60 -21 130 40 182 26 21 42 26 87 26 51
0 58 -3 93 -38z"/>
<path d="M6919 2653 c-152 -78 -184 -275 -63 -397 83 -83 234 -89 321 -13 78
69 107 202 62 294 -28 57 -98 118 -154 132 -68 17 -107 13 -166 -16z m180
-102 c88 -63 86 -185 -2 -240 -93 -57 -217 14 -217 124 0 110 132 180 219 116z"/>
<path d="M7735 2656 c-114 -52 -166 -169 -131 -290 32 -108 119 -175 229 -176
140 0 241 104 240 246 -1 178 -180 294 -338 220z m174 -105 c108 -75 82 -224
-45 -260 -43 -12 -101 10 -141 53 -29 31 -33 43 -33 91 0 46 5 60 28 85 50 56
136 70 191 31z"/>
<path d="M8459 2649 c-7 -4 -9 -21 -4 -48 7 -40 8 -41 46 -41 l39 0 0 44 c0
43 -1 44 -35 48 -19 2 -40 1 -46 -3z"/>
<path d="M8460 2380 l0 -50 40 0 40 0 0 50 0 50 -40 0 -40 0 0 -50z"/>
<path d="M11167 2372 c-23 -25 -21 -59 2 -72 34 -18 126 -12 144 8 23 25 21
59 -2 72 -34 18 -126 12 -144 -8z"/>
<path d="M9474 2355 c-4 -18 -1 -32 11 -45 18 -20 36 -20 730 -20 700 0 712 0
730 20 15 17 16 24 7 45 l-12 25 -730 0 -730 0 -6 -25z"/>
<path d="M11587 2374 c-15 -15 -7 -63 12 -74 12 -6 101 -10 218 -10 221 0 237
4 231 55 l-3 30 -226 3 c-124 1 -228 -1 -232 -4z"/>
<path d="M8460 2150 l0 -50 40 0 40 0 0 50 0 50 -40 0 -40 0 0 -50z"/>
<path d="M9498 2130 c-11 -6 -18 -23 -18 -41 0 -22 6 -32 26 -39 14 -6 112
-10 218 -10 178 0 194 2 210 19 20 22 14 55 -12 66 -31 13 -405 17 -424 5z"/>
<path d="M10228 2118 c-23 -23 -23 -33 2 -58 20 -20 33 -20 751 -20 484 0 737
3 750 10 22 12 27 68 7 75 -7 2 -346 6 -752 8 -709 4 -740 3 -758 -15z"/>
<path d="M11870 2111 c-13 -26 -3 -50 27 -62 27 -10 822 -13 847 -3 26 10 38
41 26 64 -10 20 -21 20 -450 20 -424 0 -440 -1 -450 -19z"/>
<path d="M6637 2002 c-22 -24 -21 -55 1 -75 24 -22 55 -21 75 1 22 25 21 48
-3 72 -25 25 -52 26 -73 2z"/>
<path d="M6002 1998 c-19 -19 -14 -55 10 -72 18 -13 51 -16 150 -16 115 0 130
2 148 20 24 24 25 43 4 64 -13 13 -42 16 -158 16 -97 0 -146 -4 -154 -12z"/>
<path d="M7016 1988 c-18 -25 -8 -51 26 -69 29 -16 906 -3 925 13 16 13 17 50
1 66 -9 9 -128 12 -474 12 -463 0 -463 0 -478 -22z"/>
<path d="M8460 1920 l0 -50 40 0 40 0 0 50 0 50 -40 0 -40 0 0 -50z"/>
<path d="M9780 1880 c-24 -24 -24 -29 -4 -58 l15 -22 1160 0 c781 0 1167 3
1180 10 12 7 19 21 19 40 0 19 -7 33 -19 40 -13 7 -398 10 -1175 10 -1143 0
-1156 0 -1176 -20z"/>
<path d="M8453 1635 l2 -45 43 0 42 0 0 45 0 45 -45 0 -44 0 2 -45z"/>
<path d="M5638 1633 c-10 -11 -18 -27 -18 -35 0 -44 -34 -43 1251 -46 l1218
-3 16 25 c13 19 14 29 5 45 l-11 21 -1028 0 c-565 0 -1115 3 -1222 6 -185 6
-195 6 -211 -13z"/>
<path d="M9650 1640 l-165 -5 -3 -26 c-7 -57 -90 -54 1422 -54 765 0 1401 1
1414 4 28 4 41 47 20 67 -13 13 -178 15 -1269 17 -690 1 -1328 0 -1419 -3z"/>
<path d="M5400 1594 l0 -45 48 3 47 3 3 43 3 42 -50 0 -51 0 0 -46z"/>
<path d="M12470 1595 l0 -45 50 0 50 0 0 45 0 45 -50 0 -50 0 0 -45z"/>
<path d="M8460 1420 l0 -50 40 0 40 0 0 50 0 50 -40 0 -40 0 0 -50z"/>
</g>
</svg>
