<?xml version="1.0" standalone="no"?>
<!DOCTYPE svg PUBLIC "-//W3C//DTD SVG 20010904//EN"
 "http://www.w3.org/TR/2001/REC-SVG-20010904/DTD/svg10.dtd">
<svg version="1.0" xmlns="http://www.w3.org/2000/svg"
 width="1792.000000pt" height="1024.000000pt" viewBox="0 0 1792.000000 1024.000000"
 preserveAspectRatio="xMidYMid meet">

<g transform="translate(0.000000,1024.000000) scale(0.100000,-0.100000)"
fill="#000000" stroke="none">
<path d="M8550 9046 c-65 -18 -125 -51 -164 -91 -26 -26 -44 -35 -69 -35 -80
0 -211 -62 -238 -111 -17 -32 3 -43 34 -19 14 11 44 27 66 35 l41 14 -55 -66
c-30 -36 -62 -86 -72 -109 l-18 -44 -633 0 c-673 0 -672 0 -725 -48 -50 -45
-47 14 -47 -1317 0 -1379 -5 -1276 65 -1309 18 -9 58 -16 89 -16 31 0 56 -3
56 -6 0 -19 -64 -114 -80 -119 -11 -3 -31 -19 -46 -34 -24 -26 -30 -27 -60
-18 -41 13 -86 -4 -104 -39 -8 -14 -22 -24 -35 -24 -32 0 -62 -38 -86 -108
-14 -43 -30 -68 -50 -83 -16 -11 -29 -29 -29 -38 0 -21 -24 -45 -40 -39 -8 2
-11 99 -10 316 l1 312 -25 25 c-25 25 -27 25 -205 25 -190 0 -201 -3 -216 -49
-3 -11 -19 -22 -34 -26 -16 -3 -39 -17 -52 -31 -29 -31 -36 -112 -19 -212 12
-72 29 -100 79 -132 22 -15 24 -22 25 -118 l1 -102 -87 0 -88 0 0 529 c0 489
-1 530 -17 550 -16 18 -31 21 -113 23 l-95 3 -5 45 c-7 62 -27 70 -171 70
-103 0 -119 -2 -143 -21 -20 -16 -26 -29 -26 -60 l0 -39 -68 0 c-40 0 -73 -5
-80 -12 -9 -9 -12 -145 -12 -550 l0 -538 -27 -6 c-58 -14 -413 -117 -518 -151
-83 -27 -117 -43 -142 -68 l-33 -33 0 -110 0 -110 31 -26 c30 -26 32 -26 208
-26 l178 0 5 -932 c3 -513 5 -1376 4 -1918 l-1 -985 -300 -5 c-292 -5 -300 -6
-300 -25 0 -20 6 -20 1368 -19 l1367 0 0 -43 c0 -59 20 -102 63 -140 120 -106
307 -19 307 142 0 41 2 45 24 45 23 0 41 22 29 34 -4 3 -20 6 -37 6 -25 1 -37
9 -59 41 l-28 40 21 29 c12 17 36 34 58 40 60 17 448 100 466 100 13 0 36 -35
36 -55 0 -2 -29 -22 -64 -45 -66 -43 -86 -73 -86 -129 l0 -26 -125 3 c-120 3
-125 2 -125 -17 0 -20 6 -21 113 -21 75 0 117 4 125 12 9 9 12 6 12 -14 0 -32
-25 -38 -150 -38 -49 0 -95 -3 -104 -6 -22 -8 -20 -50 2 -59 9 -3 295 -9 635
-12 605 -6 617 -7 617 -26 0 -11 -20 -37 -44 -58 -52 -46 -70 -92 -64 -160 10
-101 98 -182 198 -182 154 0 246 153 176 291 -13 26 -36 58 -50 71 -14 14 -26
33 -26 43 0 17 13 18 198 18 297 -1 1005 10 1024 16 9 3 19 12 23 22 12 32
-22 42 -147 42 l-118 0 0 26 c0 22 3 25 23 20 12 -3 95 -6 185 -6 l162 0 -6
-39 c-18 -111 117 -225 226 -192 50 15 109 65 126 108 8 18 14 53 14 78 l0 45
1715 -3 c1130 -2 1718 0 1725 7 35 35 23 36 -547 37 l-558 0 124 34 c100 27
129 39 154 64 27 26 30 34 21 58 -18 52 -75 69 -316 89 l-68 6 0 1794 0 1794
151 0 151 0 30 30 30 30 -4 109 c-3 120 -12 140 -73 165 -39 17 -485 149 -585
173 -75 19 -75 19 -78 55 -5 55 -30 71 -124 78 l-80 5 -12 35 c-10 32 -15 35
-53 38 -24 2 -43 6 -43 10 1 20 264 876 315 1027 25 72 45 146 45 166 0 38
-22 66 -74 90 -21 10 -46 43 -86 114 -187 330 -376 659 -413 720 -95 156 -117
200 -117 239 0 26 -7 47 -21 62 -18 19 -19 25 -8 46 7 12 15 37 19 53 5 25 11
31 40 33 101 10 184 -92 221 -272 10 -50 19 -132 19 -182 0 -65 4 -95 14 -103
25 -21 33 11 30 129 -5 183 -45 313 -127 405 -49 56 -88 75 -157 75 -43 0 -52
3 -59 23 -12 31 -89 105 -133 128 -41 21 -120 25 -165 8 -15 -5 -86 -68 -158
-138 -126 -123 -133 -129 -210 -156 -109 -37 -310 -141 -358 -184 -74 -67 -85
-121 -37 -193 47 -70 255 -267 350 -330 139 -92 254 -148 304 -148 37 0 48 5
69 30 32 37 79 188 112 357 14 73 30 144 35 159 14 35 49 84 61 84 5 0 20 -24
35 -52 14 -29 68 -129 119 -223 51 -93 126 -232 167 -309 l74 -139 -16 -76
c-76 -347 -249 -847 -400 -1156 -60 -121 -169 -312 -222 -387 -21 -31 -37 -15
-49 48 -14 73 -48 102 -146 123 -28 6 -67 20 -85 31 -45 27 -97 26 -142 -5
-20 -14 -49 -25 -63 -25 -15 0 -42 -5 -60 -12 -31 -11 -34 -10 -50 12 -9 14
-43 51 -75 82 -32 31 -58 61 -58 66 0 5 -21 38 -46 72 -41 55 -45 66 -35 87 8
17 11 385 11 1264 0 1379 6 1269 -68 1319 l-36 25 -545 3 -546 3 -19 42 c-28
59 -133 162 -198 192 -51 24 -118 34 -118 17 0 -5 32 -24 72 -43 115 -55 226
-184 216 -251 -3 -20 -7 -16 -31 25 -17 28 -33 45 -39 41 -6 -4 -8 -3 -5 3 9
15 -79 97 -94 88 -7 -5 -10 -4 -6 2 18 29 -192 118 -333 141 -124 19 -131 22
-100 34 14 5 53 8 87 6 70 -3 86 12 26 25 -54 12 -188 -1 -249 -24 -80 -30
-291 -190 -278 -210 3 -5 -1 -6 -9 -3 -12 4 -40 -28 -76 -91 -10 -17 -11 -15
-6 15 16 87 121 210 196 230 23 6 46 22 58 39 30 41 107 88 176 106 117 30
227 15 372 -50 42 -20 78 -33 81 -30 9 9 -41 56 -81 77 -101 51 -284 72 -387
44z m-349 -433 c-12 -20 -14 -14 -5 12 4 9 9 14 11 11 3 -2 0 -13 -6 -23z
m146 -55 c-3 -8 -6 -5 -6 6 -1 11 2 17 5 13 3 -3 4 -12 1 -19z m881 -88 c0
-27 -2 -23 -8 17 -4 29 -10 59 -13 67 -3 8 -3 17 1 21 9 8 21 -57 20 -105z
m-1012 70 c8 0 14 -7 14 -15 0 -13 -4 -13 -22 -3 -13 7 -25 14 -27 15 -1 1 1
7 5 14 6 10 9 10 12 1 2 -7 10 -12 18 -12z m966 -60 c28 0 19 -34 -11 -38 -19
-3 -22 -8 -18 -29 3 -15 1 -21 -5 -15 -5 5 -11 42 -13 83 l-5 74 16 -37 c11
-25 23 -38 36 -38z m-869 23 c-3 -7 -9 -10 -14 -7 -14 8 -11 21 5 21 8 0 12
-6 9 -14z m-77 -28 c0 -15 -4 -21 -9 -16 -5 5 -7 17 -4 25 9 23 13 20 13 -9z
m-178 -30 c1 -16 6 -39 11 -50 5 -11 14 -49 21 -85 6 -35 23 -100 37 -143 24
-77 24 -81 7 -112 -13 -25 -16 -48 -12 -111 9 -138 82 -256 168 -270 l40 -7 0
-128 0 -129 -153 0 -153 0 -49 -31 c-28 -18 -88 -69 -134 -115 -46 -46 -91
-86 -101 -89 -9 -3 -23 -17 -30 -30 -9 -17 -27 -29 -54 -35 -76 -20 -124 -41
-168 -75 l-44 -34 -144 -3 c-121 -3 -145 -5 -145 -18 0 -12 22 -15 128 -18 70
-1 127 -6 127 -10 -1 -17 -48 -63 -54 -53 -5 7 -43 11 -101 11 -73 0 -94 -3
-99 -15 -4 -13 10 -15 94 -15 55 0 100 -2 100 -5 0 -2 -7 -19 -16 -37 l-15
-33 -85 3 c-71 3 -84 1 -84 -12 0 -13 13 -16 75 -16 41 0 75 -3 75 -7 0 -3
-13 -27 -29 -52 -16 -25 -51 -90 -77 -143 l-49 -98 -146 0 c-133 0 -149 2
-173 21 l-26 20 0 948 c0 1030 -3 978 54 1001 11 5 287 8 611 7 l590 -2 3 -30z
m2271 11 l21 -19 0 -959 c0 -945 0 -958 -20 -978 -13 -13 -33 -20 -58 -20
l-38 0 -69 132 c-81 154 -179 311 -236 379 -43 52 -114 91 -199 111 -32 7 -50
17 -50 26 0 20 -39 52 -71 59 -15 3 -31 15 -37 29 -9 19 -58 61 -215 186 -1 0
-72 4 -157 7 l-155 6 -3 126 -3 126 45 12 c115 29 205 249 152 375 -12 29 -11
40 10 102 13 38 30 105 38 149 9 44 14 61 12 38 -2 -24 0 -43 5 -43 16 0 29
49 29 110 l0 59 38 4 c20 2 240 3 488 3 430 -1 453 -2 473 -20z m-2127 -22
c-6 -31 -9 -30 -14 5 -3 19 0 27 7 24 7 -2 10 -15 7 -29z m42 -44 c10 -13 9
-13 -6 -1 -10 7 -17 23 -17 35 1 20 2 20 6 1 3 -11 10 -27 17 -35z m133 28
c-3 -8 -6 -5 -6 6 -1 11 2 17 5 13 3 -3 4 -12 1 -19z m710 -45 c-3 -10 -5 -2
-5 17 0 19 2 27 5 18 2 -10 2 -26 0 -35z m153 20 c0 -35 -14 -60 -24 -44 -4 6
-11 9 -16 6 -7 -5 -8 14 -1 58 0 4 10 7 21 7 15 0 20 -7 20 -27z m-866 -13 c4
0 4 5 1 10 -3 6 -1 10 5 10 7 0 10 -6 8 -12 -3 -7 -1 -17 4 -23 22 -28 95
-144 87 -139 -11 6 -122 152 -133 174 -4 9 -2 8 7 -2 8 -10 17 -18 21 -18z
m150 -6 c3 -8 2 -12 -4 -9 -6 3 -10 10 -10 16 0 14 7 11 14 -7z m-282 -39 c-2
-11 1 -14 9 -9 9 5 10 2 6 -9 -6 -15 -2 -18 20 -16 7 0 35 -83 29 -88 -6 -6
-36 34 -63 88 -23 45 -26 56 -14 54 9 -1 15 -10 13 -20z m960 10 c3 3 11 -1
17 -9 14 -16 6 -76 -9 -76 -7 0 -7 17 -1 38 2 7 0 12 -5 11 -8 -1 -33 33 -34
45 0 5 6 3 13 -3 8 -6 16 -9 19 -6z m2306 -4 c78 -40 142 -135 123 -183 -6
-13 -10 -19 -10 -14 -1 6 -7 1 -15 -9 -8 -11 -12 -26 -9 -35 3 -10 1 -10 -7 3
-9 14 -7 24 12 50 12 17 15 26 7 20 -9 -7 -20 -9 -24 -5 -5 4 -5 -1 -2 -10 7
-21 -12 -36 -23 -18 -15 24 -20 -21 -5 -50 21 -41 18 -51 -4 -14 -22 36 -44
55 -35 29 4 -9 3 -15 -2 -14 -21 4 -24 -2 -10 -16 19 -20 27 -19 20 3 -5 14
-3 14 10 -2 9 -11 16 -27 15 -35 0 -11 -2 -12 -6 -3 -2 6 -9 12 -14 12 -4 0
-5 -7 -2 -17 4 -10 2 -14 -4 -10 -6 4 -14 0 -17 -9 -3 -8 -2 -12 4 -9 6 4 5
-6 -2 -20 l-12 -27 -28 31 c-33 37 -37 22 -6 -22 17 -24 18 -28 4 -18 -14 12
-19 12 -26 2 -5 -9 -10 -10 -14 -2 -4 6 -12 11 -19 11 -6 0 5 -16 24 -37 l34
-36 -33 22 c-43 30 -52 21 -12 -13 24 -20 28 -27 17 -32 -8 -3 -13 -13 -10
-23 2 -10 -2 -44 -10 -77 -8 -32 -18 -72 -22 -88 -5 -23 -8 -27 -16 -15 -7 11
-9 11 -9 -4 0 -10 -4 -15 -10 -12 -6 4 -7 -1 -3 -11 4 -11 8 -13 11 -6 2 7 8
12 13 12 4 0 6 -7 2 -15 -3 -9 -13 -15 -22 -14 -25 2 -61 -12 -55 -22 3 -5 10
-7 15 -4 5 4 9 1 9 -4 0 -6 5 -11 11 -11 8 0 8 5 -1 15 -10 12 -10 15 2 15 7
0 14 -9 15 -20 2 -22 -12 -35 -22 -20 -10 16 -23 12 -35 -11 -11 -19 -10 -20
9 -9 15 8 21 8 21 0 0 -6 4 -8 10 -5 6 4 7 -2 1 -17 -8 -23 -38 -33 -34 -12 1
6 -4 11 -12 11 -8 0 -12 -4 -9 -8 2 -4 -4 -15 -13 -25 -10 -10 -19 -21 -19
-26 -1 -4 -2 -11 -3 -15 0 -4 -8 2 -17 13 -14 18 -15 18 -4 -3 6 -13 15 -23
20 -23 6 0 10 -6 10 -14 0 -7 -48 35 -108 93 -163 161 -349 293 -465 331 l-51
17 43 31 c66 48 226 126 331 163 94 33 96 34 210 147 63 63 128 125 143 138
35 30 93 32 145 5z m-2953 -11 c10 -11 16 -20 13 -20 -3 0 -13 9 -23 20 -10
11 -16 20 -13 20 3 0 13 -9 23 -20z m-278 -12 c-3 -8 -6 -5 -6 6 -1 11 2 17 5
13 3 -3 4 -12 1 -19z m354 5 c13 -16 12 -17 -3 -4 -10 7 -18 15 -18 17 0 8 8
3 21 -13z m14 -83 c22 -24 67 -60 99 -81 33 -22 55 -39 49 -39 -17 0 -146 96
-188 140 -22 23 -31 38 -20 32 11 -6 38 -29 60 -52z m56 23 c13 -16 12 -17 -3
-4 -10 7 -18 15 -18 17 0 8 8 3 21 -13z m318 -36 c-12 -43 -22 -50 -13 -9 9
42 14 55 19 50 2 -2 0 -21 -6 -41z m-84 -59 c6 1 22 4 38 8 28 6 33 -1 18 -24
-6 -11 -20 -10 -72 3 -73 19 -94 31 -34 20 22 -4 45 -7 50 -7z m2633 -63 c-3
-3 -9 2 -12 12 -6 14 -5 15 5 6 7 -7 10 -15 7 -18z m-2373 -206 c-20 -77 -35
-106 -69 -139 l-27 -24 30 64 c16 36 36 94 46 130 24 91 28 100 33 64 2 -18
-4 -60 -13 -95z m-1001 26 c10 -33 31 -86 47 -117 36 -72 36 -79 0 -44 -39 37
-71 115 -78 185 -7 69 6 59 31 -24z m3446 36 c0 -12 -20 -25 -27 -18 -7 7 6
27 18 27 5 0 9 -4 9 -9z m58 -128 c17 -27 79 -133 139 -238 60 -104 150 -260
199 -345 173 -297 197 -341 187 -351 -6 -6 -22 13 -43 53 -51 97 -188 334
-240 418 -26 41 -87 147 -136 235 -48 88 -103 183 -121 212 -35 56 -38 63 -24
63 5 0 23 -21 39 -47z m-953 -69 c71 -37 194 -127 290 -211 93 -80 215 -216
215 -238 0 -47 -154 24 -315 144 -148 110 -305 272 -305 313 0 27 55 23 115
-8z m935 -34 c6 -11 8 -20 6 -20 -3 0 -10 9 -16 20 -6 11 -8 20 -6 20 3 0 10
-9 16 -20z m-2835 -109 c-6 -5 -39 -27 -74 -49 -69 -41 -86 -62 -52 -62 29 0
134 36 204 70 l57 28 0 -94 0 -94 -290 0 c-159 0 -290 2 -290 4 0 1 60 26 133
55 72 28 173 74 222 101 93 51 106 57 90 41z m2495 -146 c-14 -17 -30 -20 -30
-6 0 5 8 12 18 14 9 3 19 5 21 6 2 0 -2 -6 -9 -14z m-57 -30 c-8 -22 -22 -18
-16 5 3 11 9 17 14 15 4 -3 6 -12 2 -20z m-1950 -89 c39 -16 192 -147 188
-161 -1 -5 -11 -13 -22 -17 -12 -5 -18 -4 -14 1 6 11 -42 50 -90 74 -95 48
-299 68 -705 68 -372 0 -563 -12 -651 -41 -73 -23 -112 -44 -144 -76 -24 -23
-45 -25 -45 -3 0 11 78 88 129 128 47 35 81 37 759 39 455 2 569 -1 595 -12z
m1972 4 c3 -5 -1 -10 -10 -10 -9 0 -13 5 -10 10 3 6 8 10 10 10 2 0 7 -4 10
-10z m672 -162 c84 -132 196 -329 190 -335 -7 -7 -119 176 -229 375 -46 82
-26 61 39 -40z m-3677 32 c8 -5 11 -10 5 -10 -5 0 -17 5 -25 10 -8 5 -10 10
-5 10 6 0 17 -5 25 -10z m45 -20 c3 -6 -1 -7 -9 -4 -18 7 -21 14 -7 14 6 0 13
-4 16 -10z m40 -20 c3 -6 -1 -7 -9 -4 -18 7 -21 14 -7 14 6 0 13 -4 16 -10z
m-544 -71 c51 -40 52 -59 1 -49 -21 4 -44 10 -50 14 -8 5 -10 1 -6 -11 3 -10
-2 -7 -10 7 -25 41 -19 66 18 69 4 1 26 -13 47 -30z m654 21 c3 -6 -1 -7 -9
-4 -18 7 -21 14 -7 14 6 0 13 -4 16 -10z m1114 1 c11 -7 9 -13 -8 -30 -11 -11
-23 -21 -26 -21 -16 1 -37 -19 -31 -29 4 -6 12 -9 17 -5 5 3 7 9 4 14 -3 5 4
8 15 7 17 -1 18 -4 7 -21 -17 -24 -53 -31 -61 -10 -4 10 -2 13 6 8 6 -4 8 -3
4 4 -16 25 -109 -18 -246 -115 -14 -10 -42 -26 -62 -36 -33 -17 -36 -21 -27
-40 9 -20 9 -20 -4 -5 -8 10 -17 15 -20 11 -4 -3 -7 -4 -7 0 0 11 87 66 94 60
3 -4 6 -2 6 4 0 5 38 34 84 62 46 29 113 75 148 101 64 50 82 57 107 41z
m-219 -45 c0 -2 -8 -10 -17 -17 -16 -13 -17 -12 -4 4 13 16 21 21 21 13z
m2624 -78 c19 -35 55 -98 78 -140 24 -43 51 -79 62 -82 30 -8 23 -31 -185
-671 -113 -348 -138 -444 -139 -527 l0 -58 -149 0 c-169 0 -193 -9 -205 -75
l-7 -35 -84 0 c-73 0 -85 2 -85 17 0 9 29 60 63 112 138 207 238 411 354 716
65 170 180 538 223 713 13 50 26 92 31 92 4 0 23 -28 43 -62z m-4289 35 c5
-10 9 -24 11 -31 1 -8 8 -21 16 -31 7 -9 3 -7 -9 6 -22 23 -39 31 -28 13 3 -5
0 -7 -9 -4 -8 3 -45 -10 -81 -29 -37 -20 -72 -34 -79 -31 -13 5 -30 -11 -51
-45 -5 -10 -27 -43 -47 -74 -21 -30 -101 -174 -179 -319 -78 -145 -154 -281
-169 -303 -15 -22 -30 -50 -34 -62 -4 -13 -11 -23 -16 -23 -34 0 237 555 377
771 61 95 128 146 220 168 58 14 70 13 78 -6z m323 -98 c2 -2 -8 -2 -21 -1
-13 0 -23 6 -21 11 2 6 -8 11 -22 12 -15 0 -31 8 -36 17 -5 9 -16 16 -23 16
-8 0 -15 7 -15 15 0 8 -4 15 -10 15 -5 0 -10 -6 -10 -12 0 -9 -3 -9 -9 1 -6 9
-5 19 2 26 9 10 29 0 87 -43 41 -30 76 -56 78 -57z m1683 99 c142 -42 174 -77
341 -374 78 -138 250 -479 263 -520 5 -17 4 -21 -6 -15 -9 6 -11 3 -6 -9 4
-11 3 -15 -4 -11 -6 4 -8 13 -5 20 2 7 -5 28 -16 46 -12 19 -29 48 -38 64 -10
17 -35 59 -57 95 -22 36 -58 99 -80 140 -139 261 -259 445 -288 445 -11 0 -33
10 -50 21 -46 33 -112 64 -135 64 -22 0 -27 19 -8 38 16 16 24 15 89 -4z
m-239 -22 c-12 -11 -18 -23 -14 -27 4 -5 2 -5 -5 -2 -6 4 -25 -5 -43 -19 -17
-15 -34 -23 -38 -20 -3 4 0 11 8 16 8 4 24 15 35 24 61 47 70 54 74 50 2 -2
-5 -12 -17 -22z m33 -13 c4 -6 13 -8 21 -5 8 3 11 0 7 -9 -3 -8 -10 -12 -17
-8 -6 4 -15 8 -20 8 -5 0 -11 6 -13 13 -6 15 13 16 22 1z m-1675 -23 c0 -3 -4
-8 -10 -11 -5 -3 -10 -1 -10 4 0 6 5 11 10 11 6 0 10 -2 10 -4z m26 -21 c-1
-14 -5 -27 -8 -30 -4 -5 -4 19 1 48 3 19 9 4 7 -18z m285 -22 c13 -16 12 -17
-3 -4 -10 7 -18 15 -18 17 0 8 8 3 21 -13z m1369 13 c0 -2 -8 -10 -17 -17 -16
-13 -17 -12 -4 4 13 16 21 21 21 13z m-1746 -14 c3 -5 -1 -9 -9 -9 -8 0 -12 4
-9 9 3 4 7 8 9 8 2 0 6 -4 9 -8z m1566 -11 c0 -5 -7 -12 -16 -15 -14 -5 -15
-4 -4 9 14 17 20 19 20 6z m-1200 -57 c0 -9 -70 32 -74 43 -3 7 13 1 34 -13
22 -15 40 -28 40 -30z m-315 -4 c9 -16 11 -30 6 -30 -11 0 -31 32 -31 49 0 19
9 12 25 -19z m95 -2 c0 -5 -7 -3 -15 6 -8 8 -15 18 -15 22 0 3 7 1 15 -6 8 -7
15 -17 15 -22z m175 4 c-3 -3 -11 0 -18 7 -9 10 -8 11 6 5 10 -3 15 -9 12 -12z
m985 14 c0 -2 -7 -7 -16 -10 -8 -3 -12 -2 -9 4 6 10 25 14 25 6z m-1095 -79
c4 5 5 2 1 -5 -6 -11 -15 -7 -37 14 -16 15 -29 30 -29 33 0 2 13 -7 28 -22 16
-15 32 -24 37 -20z m4333 31 c28 -28 3 -66 -33 -52 -15 6 -21 45 -8 57 10 11
28 8 41 -5z m-4447 -40 c17 -24 18 -29 6 -19 -18 14 -42 51 -33 51 3 0 15 -15
27 -32z m1069 8 c0 -2 -7 -7 -16 -10 -8 -3 -12 -2 -9 4 6 10 25 14 25 6z m-45
-26 c-3 -5 -12 -10 -18 -10 -7 0 -6 4 3 10 19 12 23 12 15 0z m-887 -25 c-3
-3 -9 2 -12 12 -6 14 -5 15 5 6 7 -7 10 -15 7 -18z m57 -28 c4 5 5 3 2 -4 -4
-6 5 -21 19 -32 15 -12 23 -21 17 -21 -5 0 -27 19 -48 42 -22 23 -31 35 -19
25 11 -9 24 -14 29 -10z m-137 -22 c-3 -3 -9 2 -12 12 -6 14 -5 15 5 6 7 -7
10 -15 7 -18z m4271 -67 c-28 -102 -76 -263 -99 -328 -10 -30 -58 -180 -106
-332 -61 -195 -92 -278 -102 -278 -8 0 -12 6 -10 13 16 41 137 421 268 835 28
89 55 162 60 162 5 0 0 -33 -11 -72z m-4214 -8 c3 -6 -1 -7 -9 -4 -18 7 -21
14 -7 14 6 0 13 -4 16 -10z m1185 -10 c0 -5 -2 -10 -4 -10 -3 0 -8 5 -11 10
-3 6 -1 10 4 10 6 0 11 -4 11 -10z m-937 -23 c-5 -8 -8 -7 -11 1 -2 7 -9 9
-14 6 -7 -4 -8 -2 -4 4 4 6 13 9 21 6 8 -4 12 -11 8 -17z m-2805 -596 c1 -423
-1 -588 -9 -597 -15 -18 -178 -19 -202 -1 -16 11 -18 55 -17 590 0 318 2 583
6 588 3 6 52 8 112 7 l107 -3 3 -584z m3624 542 c-9 -7 -21 -13 -26 -13 -6 1
-2 6 9 13 12 7 20 20 18 32 l-3 20 9 -20 c6 -14 5 -24 -7 -32z m-728 -11 c3
-5 -1 -9 -9 -9 -8 0 -12 4 -9 9 3 4 7 8 9 8 2 0 6 -4 9 -8z m643 2 c-3 -3 -12
-4 -19 -1 -8 3 -5 6 6 6 11 1 17 -2 13 -5z m3224 -135 c-22 -68 -60 -191 -85
-274 -24 -82 -59 -196 -76 -252 -17 -56 -36 -105 -42 -109 -7 -5 -9 -2 -6 7 3
8 24 77 48 154 44 147 146 472 177 563 9 30 19 50 21 44 1 -5 -15 -65 -37
-133z m-3248 96 c-3 -9 -8 -14 -10 -11 -3 3 -2 9 2 15 9 16 15 13 8 -4z
m-3891 -57 l1 -33 6 35 c5 34 5 34 11 -15 l7 -50 1 48 c2 58 21 63 24 5 l1
-43 7 45 7 45 3 -45 3 -45 6 45 c13 94 21 -123 21 -572 0 -432 -1 -448 -19
-458 -22 -11 -61 -13 -85 -4 -14 5 -16 62 -16 540 0 349 3 534 10 534 6 0 11
-15 12 -32z m460 -15 l2 -48 3 48 c2 26 8 47 14 47 5 0 10 -21 11 -47 l2 -48
3 48 c5 63 23 60 25 -5 l2 -53 3 53 c2 28 8 52 14 52 5 0 10 -24 11 -52 l2
-53 3 53 c2 28 8 52 14 52 5 0 10 -24 11 -52 l2 -53 3 53 c2 30 8 50 14 47 5
-4 9 -209 9 -525 l0 -519 -22 -15 c-13 -10 -43 -16 -74 -16 -85 0 -83 -5 -83
295 1 405 10 785 20 785 5 0 10 -21 11 -47z m2072 -82 c8 -132 7 -253 -3 -269
-5 -9 -19 8 -44 56 -20 38 -34 72 -30 76 3 3 2 6 -4 6 -6 0 -13 6 -16 13 -4
10 5 13 29 12 19 0 35 4 36 10 0 5 4 -12 8 -40 5 -36 7 -13 8 83 1 82 -2 132
-8 132 -5 0 -10 4 -10 8 0 5 6 9 14 9 10 0 15 -25 20 -96z m1613 61 c-10 -10
-16 -21 -15 -23 2 -2 1 -3 -1 -2 -10 6 -31 -21 -31 -41 0 -17 -2 -18 -10 -6
-8 13 -10 12 -10 -3 0 -11 -5 -15 -11 -11 -7 4 8 25 37 55 46 47 75 69 41 31z
m-1550 -84 c-2 -18 -4 -6 -4 27 0 33 2 48 4 33 2 -15 2 -42 0 -60z m538 32 c3
-6 -1 -7 -9 -4 -18 7 -21 14 -7 14 6 0 13 -4 16 -10z m-810 -38 c-3 -3 -11 0
-18 7 -9 10 -8 11 6 5 10 -3 15 -9 12 -12z m860 -12 c4 -6 -5 -10 -19 -10 -14
0 -26 5 -26 10 0 6 9 10 19 10 11 0 23 -4 26 -10z m875 0 c0 -5 -7 -10 -16
-10 -8 0 -12 5 -9 10 3 6 10 10 16 10 5 0 9 -4 9 -10z m97 -4 c4 -3 -16 -6
-43 -6 -28 0 -44 4 -37 8 14 9 71 7 80 -2z m-2157 -1 c0 -9 -87 -177 -133
-255 l-43 -75 -57 1 c-46 1 -63 6 -82 24 -24 23 -25 28 -25 167 l0 143 170 0
c94 0 170 -2 170 -5z m1118 -2 c-10 -2 -26 -2 -35 0 -10 3 -2 5 17 5 19 0 27
-2 18 -5z m2261 -110 l0 -118 -54 105 c-30 58 -54 111 -54 118 -1 8 16 12 54
12 l55 0 -1 -117z m-2356 100 c-7 -2 -21 -2 -30 0 -10 3 -4 5 12 5 17 0 24 -2
18 -5z m1032 -43 c208 -14 325 -34 401 -69 159 -74 213 -185 284 -585 17 -94
39 -214 50 -266 25 -124 93 -544 119 -735 11 -82 28 -206 37 -275 24 -172 25
-460 2 -608 -12 -80 -55 -216 -88 -282 -34 -68 -133 -177 -197 -218 -80 -51
-182 -79 -353 -96 -484 -49 -1036 -47 -1445 5 -240 30 -341 73 -446 187 -94
103 -147 227 -175 412 -19 126 -18 446 1 592 19 148 106 661 144 858 17 85 40
216 51 290 22 145 71 387 95 468 8 27 24 61 35 74 10 14 17 28 13 31 -10 11
45 75 92 107 83 57 226 93 430 109 160 12 765 13 950 1z m415 -10 c8 -5 11
-10 5 -10 -5 0 -17 5 -25 10 -8 5 -10 10 -5 10 6 0 17 -5 25 -10z m-1849 -55
c15 10 10 -12 -6 -25 -13 -11 -15 -7 -14 31 2 30 3 35 6 16 2 -15 9 -25 14
-22z m74 33 c-11 -6 -29 -18 -40 -27 -20 -16 -20 -16 -2 5 9 11 15 23 13 25
-2 2 7 5 22 6 24 1 24 0 7 -9z m2061 -43 c1 -8 -2 -17 -7 -21 -5 -3 -8 6 -7
20 2 26 10 26 14 1z m-49 -52 c-3 -10 -5 -4 -5 12 0 17 2 24 5 18 2 -7 2 -21
0 -30z m126 22 c-3 -9 -8 -14 -10 -11 -3 3 -2 9 2 15 9 16 15 13 8 -4z m-2395
-31 c8 -15 8 -21 -1 -21 -7 0 -13 11 -13 24 -2 27 -1 27 14 -3z m2856 -12 c3
-5 -1 -9 -9 -9 -8 0 -15 4 -15 9 0 4 4 8 9 8 6 0 12 -4 15 -8z m-576 -32 c-13
-40 -23 -44 -26 -12 -1 21 0 24 8 12 8 -12 10 -11 10 8 0 12 4 22 9 22 6 0 6
-12 -1 -30z m-3512 -18 c16 -10 29 -579 13 -598 -9 -11 -45 -14 -159 -14 -185
0 -186 0 -177 122 4 46 7 176 7 291 l0 207 153 0 c83 0 157 -4 163 -8z m1268
-8 c3 -8 2 -12 -4 -9 -6 3 -10 10 -10 16 0 14 7 11 14 -7z m-589 -164 c-24
-81 -58 -213 -70 -273 -9 -44 -25 -21 -25 37 0 62 25 163 67 266 17 41 34 84
39 95 7 17 8 16 11 -10 2 -16 -8 -68 -22 -115z m535 99 c0 -6 -4 -7 -10 -4 -5
3 -10 11 -10 16 0 6 5 7 10 4 6 -3 10 -11 10 -16z m63 8 c7 4 8 0 4 -11 -4
-10 -7 -22 -7 -27 0 -6 -4 -7 -10 -4 -5 3 -7 0 -4 -8 9 -26 -10 -26 -29 -1
-18 24 -18 24 7 24 20 0 23 4 20 23 -2 12 -2 16 2 9 3 -6 11 -9 17 -5z m-1653
-15 c0 -5 -9 -17 -20 -27 -27 -24 -26 -87 0 -166 24 -70 19 -86 -15 -47 -41
48 -46 214 -7 237 21 13 42 14 42 3z m3993 -25 l22 18 -19 -22 c-20 -24 -37
-22 -35 5 1 15 2 14 6 -1 5 -18 5 -18 26 0z m-41 -49 c-7 -7 -12 -8 -12 -2 0
14 12 26 19 19 2 -3 -1 -11 -7 -17z m-22 -7 c0 -6 -4 -13 -10 -16 -5 -3 -10 1
-10 9 0 9 5 16 10 16 6 0 10 -4 10 -9z m691 -56 c21 -48 36 -180 18 -170 -5 4
-7 15 -4 26 4 10 2 27 -4 36 -8 14 -11 15 -11 3 0 -8 -7 -3 -16 13 -8 15 -20
25 -25 21 -7 -4 -7 0 0 14 6 11 11 39 11 61 0 23 3 41 6 41 3 0 14 -20 25 -45z
m-4614 3 c-3 -7 -5 -2 -5 12 0 14 2 19 5 13 2 -7 2 -19 0 -25z m898 -165 c-9
-24 -35 -79 -56 -121 l-40 -77 5 47 c6 50 40 139 78 204 21 36 23 37 26 15 2
-13 -4 -44 -13 -68z m3107 47 c-22 -26 -24 -25 -10 5 6 13 15 22 19 19 5 -2 1
-14 -9 -24z m738 -25 c46 -67 60 -108 60 -172 0 -84 -16 -98 -23 -21 -5 46
-18 85 -47 141 -22 43 -40 83 -40 88 0 21 21 6 50 -36z m-3938 13 c15 -12 10
-21 -44 -88 -62 -76 -97 -139 -98 -174 0 -14 -5 -17 -22 -13 -13 3 -38 10 -57
14 -39 10 -52 30 -24 39 10 3 37 14 59 25 69 32 88 73 24 50 -29 -10 -31 -9
-25 12 15 49 41 81 73 89 17 5 32 13 32 18 0 15 30 40 49 40 9 0 25 -6 33 -12z
m4272 -17 c17 -11 64 -27 105 -36 64 -15 122 -47 108 -61 -3 -3 -31 4 -63 15
-35 12 -65 16 -78 11 -19 -7 -19 -8 9 -23 17 -8 49 -20 72 -26 36 -10 49 -22
92 -83 54 -77 65 -118 31 -118 -12 0 -40 26 -75 70 -73 92 -83 93 -153 21 -37
-39 -57 -51 -97 -59 -27 -6 -62 -8 -77 -5 -23 4 -28 11 -28 37 -1 59 -18 107
-55 147 -43 48 -39 56 31 68 27 4 67 19 89 34 47 32 49 32 89 8z m-1055 -54
c-2 -3 -15 10 -28 27 l-24 31 28 -27 c16 -15 27 -29 24 -31z m51 -19 c0 -4 -4
-8 -9 -8 -6 0 -12 4 -15 8 -3 5 1 9 9 9 8 0 15 -4 15 -9z m1907 -55 c-3 -10
-5 -4 -5 12 0 17 2 24 5 18 2 -7 2 -21 0 -30z m-5070 -5 c-3 -8 -6 -5 -6 6 -1
11 2 17 5 13 3 -3 4 -12 1 -19z m5263 2 c0 -16 -7 -20 -30 -20 -32 0 -33 1
-24 24 9 24 54 21 54 -4z m-5415 -106 c0 -80 -2 -97 -8 -70 -5 20 -14 36 -19
36 -6 0 -8 -7 -4 -15 3 -8 1 -15 -4 -15 -13 0 -3 71 17 128 8 23 15 42 16 42
1 0 2 -48 2 -106z m3998 91 c4 -8 2 -17 -3 -20 -6 -4 -10 3 -10 14 0 25 6 27
13 6z m-584 -66 c2 -7 -1 -9 -8 -5 -6 4 -11 3 -11 -2 0 -11 30 -26 43 -23 5 1
6 -3 2 -9 -6 -9 -79 36 -145 89 -20 17 -12 15 45 -8 38 -17 71 -35 74 -42z
m531 20 c0 -5 -6 -9 -13 -9 -7 0 -13 9 -13 19 0 15 3 17 13 9 7 -6 13 -14 13
-19z m60 7 c0 -3 -4 -8 -10 -11 -5 -3 -10 -1 -10 4 0 6 5 11 10 11 6 0 10 -2
10 -4z m1463 -13 l157 -6 0 -32 c0 -22 -6 -36 -17 -41 -25 -11 -551 -16 -648
-7 l-80 8 0 35 c0 32 3 36 35 41 49 9 365 10 553 2z m-1978 -91 c-3 -3 -11 0
-18 7 -9 10 -8 11 6 5 10 -3 15 -9 12 -12z m-2712 -63 c-7 -49 -11 -54 -36
-57 -33 -4 -33 -2 -2 44 14 21 28 49 32 63 10 42 14 9 6 -50z m2522 22 c13
-27 29 -52 35 -56 22 -13 8 -25 -30 -25 -45 0 -54 11 -65 83 -7 43 -6 47 14
47 15 0 28 -14 46 -49z m273 14 c24 -10 41 -19 39 -22 -3 -2 -29 8 -58 22 -59
27 -50 28 19 0z m-3826 -10 c11 -14 36 -32 56 -40 23 -10 32 -19 26 -25 -7 -7
-172 -9 -454 -8 l-444 3 70 46 69 47 329 1 328 1 20 -25z m5158 -16 c52 -22
99 -45 105 -50 5 -5 -141 -9 -372 -9 -345 0 -437 6 -370 24 12 3 98 6 190 6
97 0 177 4 188 10 11 6 19 21 19 35 0 24 2 25 73 25 62 0 85 -6 167 -41z
m-6660 1 c0 -5 -7 -10 -15 -10 -25 0 -65 -23 -65 -37 0 -15 12 -13 120 17 62
18 214 37 235 31 6 -2 101 -3 213 -2 l203 3 -26 -26 c-16 -16 -25 -35 -23 -49
l3 -22 480 -5 480 -5 -1 -21 c0 -16 4 -20 14 -16 9 3 13 1 9 -5 -4 -6 -30 -9
-59 -7 -29 2 -512 4 -1073 4 l-1020 1 70 25 c67 24 432 132 448 133 4 1 7 -3
7 -9z m1827 -22 c-3 -8 -6 -5 -6 6 -1 11 2 17 5 13 3 -3 4 -12 1 -19z m3598
12 c13 -5 14 -9 5 -9 -8 0 -24 4 -35 9 -13 5 -14 9 -5 9 8 0 24 -4 35 -9z
m1755 -1 c68 -14 129 -21 106 -11 -67 29 132 16 218 -14 21 -8 47 -14 58 -14
32 0 15 23 -28 36 l-39 12 36 1 c20 1 62 -8 95 -19 32 -12 103 -32 157 -46
114 -29 278 -86 313 -109 22 -14 24 -22 24 -99 0 -47 -3 -91 -6 -100 -6 -14
-116 -16 -1150 -16 -1083 0 -1144 1 -1143 18 0 9 4 35 8 57 l9 40 1 -53 c1
-66 21 -61 21 6 0 26 5 54 11 62 8 11 9 1 4 -37 -3 -33 -2 -53 4 -53 6 0 11
35 13 78 l3 77 1000 0 c632 0 1003 4 1007 10 25 34 6 35 -993 35 l-978 0 8 23
8 22 431 3 c364 2 432 4 442 17 17 20 7 41 -32 65 l-33 20 190 0 c105 -1 210
-5 235 -11z m-5435 -49 c7 0 15 8 17 18 3 9 9 -6 16 -35 6 -28 21 -75 32 -105
26 -69 25 -76 -6 -47 -38 34 -70 108 -53 123 9 8 10 8 5 -1 -8 -15 9 -50 17
-36 4 6 4 26 0 46 -4 25 -10 34 -19 30 -8 -3 -14 -13 -15 -22 0 -12 -2 -12 -9
4 -5 11 -8 34 -8 50 1 30 1 30 5 3 2 -16 10 -28 18 -28z m3775 19 c10 -6 4 -7
-15 -3 -16 4 -37 11 -45 15 -10 6 -4 7 15 3 17 -4 37 -11 45 -15z m-3255 -84
c-34 -28 -45 -31 -45 -12 0 8 -3 8 -8 2 -4 -6 -20 -8 -37 -4 l-30 7 30 1 c17
1 46 8 65 15 52 20 58 18 25 -9z m-132 -12 c-7 -2 -21 -2 -30 0 -10 3 -4 5 12
5 17 0 24 -2 18 -5z m-223 -45 c0 -5 10 -8 22 -8 12 0 19 -3 15 -6 -11 -11
-52 5 -65 26 -12 19 -11 20 8 8 11 -7 20 -16 20 -20z m290 17 c0 -9 -64 -32
-105 -38 l-40 -6 35 11 c19 5 51 16 70 24 42 16 40 15 40 9z m-538 -24 c4 -4
10 -42 14 -86 3 -44 10 -87 15 -95 5 -9 6 22 2 74 -4 57 -3 87 4 83 5 -3 10
-44 12 -91 l2 -86 -1140 0 c-1117 0 -1141 0 -1151 19 -11 21 -14 139 -4 165 6
14 108 16 1053 16 575 0 1052 4 1059 8 14 9 123 4 134 -7z m361 -18 c-7 -2
-19 -2 -25 0 -7 3 -2 5 12 5 14 0 19 -2 13 -5z m3580 0 c-7 -2 -19 -2 -25 0
-7 3 -2 5 12 5 14 0 19 -2 13 -5z m-3866 -150 c-2 -21 -4 -6 -4 32 0 39 2 55
4 38 2 -18 2 -50 0 -70z m30 -15 c-2 -13 -4 -3 -4 22 0 25 2 35 4 23 2 -13 2
-33 0 -45z m4035 17 c2 -19 0 -35 -4 -35 -4 0 -8 16 -8 35 0 19 2 35 4 35 2 0
6 -16 8 -35z m-3987 -25 c3 -5 -1 -10 -10 -10 -9 0 -13 5 -10 10 3 6 8 10 10
10 2 0 7 -4 10 -10z m615 -80 c0 -7 -464 -10 -1295 -10 -869 0 -1295 3 -1295
10 0 7 426 10 1295 10 830 0 1295 -4 1295 -10z m4230 0 c0 -7 -268 -10 -785
-10 -517 0 -785 3 -785 10 0 7 268 10 785 10 517 0 785 -3 785 -10z m1095 0
c-4 -6 -190 -10 -526 -10 -339 0 -519 3 -519 10 0 7 182 10 526 10 347 0 523
-3 519 -10z m-7525 -790 l0 -730 -40 0 -40 0 0 730 0 730 40 0 40 0 0 -730z
m2196 688 c-24 -142 -59 -372 -77 -493 -11 -77 -24 -143 -27 -147 -6 -5 -130
-58 -137 -58 -1 0 -5 70 -9 156 -4 86 -9 168 -12 184 -5 24 -1 30 32 46 51 25
66 55 61 128 -3 50 -8 63 -32 83 -27 24 -30 24 -192 21 l-165 -3 -29 -33 c-25
-28 -29 -40 -29 -90 0 -69 18 -99 64 -107 l33 -7 12 -201 c7 -111 14 -224 17
-252 2 -27 11 -158 19 -290 17 -254 30 -389 45 -443 11 -41 53 -99 78 -107 21
-6 44 -66 182 -465 45 -129 104 -298 132 -375 28 -77 92 -264 144 -415 80
-237 98 -279 124 -301 24 -20 28 -28 18 -36 -7 -5 -74 -24 -148 -42 -285 -67
-433 -113 -462 -142 -26 -26 -28 -33 -28 -111 1 -57 5 -89 15 -102 21 -28 19
-34 -18 -50 -18 -7 -45 -27 -59 -45 l-27 -31 -253 2 -253 3 -5 1127 -5 1127
-23 23 c-21 21 -33 23 -150 26 -106 3 -131 1 -141 -12 -7 -8 -10 -19 -7 -24 3
-5 60 -10 128 -11 70 -1 127 -6 135 -13 11 -8 13 -210 13 -1079 l0 -1069 -615
0 c-400 0 -615 3 -615 10 0 6 212 11 603 12 l602 3 3 1008 2 1007 -610 0 -610
0 0 60 0 60 463 2 c454 3 462 3 462 23 0 19 -8 20 -252 23 l-253 2 0 730 0
730 931 0 932 0 -7 -42z m4242 -75 c15 -142 39 -263 91 -444 88 -304 95 -352
96 -584 0 -266 -1 -272 -158 -816 -72 -249 -79 -307 -75 -633 l2 -281 -43
-175 c-38 -154 -43 -185 -39 -260 5 -114 44 -198 127 -279 l58 -58 -281 -6
c-379 -8 -760 -44 -871 -83 -36 -12 -41 -12 -57 6 -10 11 -32 27 -48 35 -33
17 -38 36 -15 55 11 9 15 34 15 97 0 121 -6 126 -230 186 -96 25 -233 60 -305
78 -71 17 -132 33 -134 35 -3 3 9 17 27 32 24 21 37 46 55 112 14 47 48 150
77 230 28 80 69 195 90 255 21 61 70 198 110 305 75 204 214 591 224 625 3 11
20 26 37 34 36 16 64 57 84 126 17 57 47 374 70 735 8 135 18 286 21 337 6 91
6 92 35 98 42 9 69 49 69 102 0 100 -47 132 -209 140 -129 7 -171 0 -211 -33
-28 -24 -30 -30 -30 -98 0 -80 10 -98 64 -112 l29 -7 -7 -111 c-13 -216 -19
-287 -25 -283 -3 2 -33 16 -66 32 l-61 28 -28 216 c-38 295 -54 410 -61 449
l-6 32 784 0 784 0 11 -117z m322 -1719 l0 -1836 -52 7 c-92 12 -121 23 -193
77 -76 57 -128 126 -146 191 -17 63 -5 226 25 332 51 183 59 260 46 451 -19
270 -3 386 104 745 117 394 141 536 133 784 -6 175 -19 245 -101 540 -52 187
-82 335 -92 458 l-7 87 142 0 141 0 0 -1836z m470 -49 l0 -1886 -62 3 -63 3
-2 1874 c-2 1030 0 1877 3 1882 3 5 32 9 65 9 l59 0 0 -1885z m243 1625 c2
-14 5 29 7 95 l3 120 11 -115 11 -115 5 120 5 120 7 -85 c5 -47 8 -885 8
-1862 l0 -1778 -125 0 -126 0 5 1808 c5 2063 3 1869 16 1890 7 12 10 -6 10
-63 1 -44 5 -98 9 -120 9 -40 9 -40 12 20 l3 60 3 -52 c7 -91 23 -58 25 50 l2
102 6 -110 c4 -75 7 -91 8 -50 3 67 20 60 24 -10 1 -22 5 12 8 75 l6 115 2
-112 c1 -62 6 -113 11 -113 8 0 19 102 22 199 1 25 6 -1 10 -59 5 -58 10 -116
12 -130z m-7740 85 c12 149 14 152 16 18 0 -71 5 -123 11 -123 5 0 9 49 9 116
0 64 3 119 6 122 3 3 5 -20 5 -51 0 -75 19 -74 22 1 2 57 2 56 8 -18 l6 -75 2
69 c1 38 4 67 6 65 2 -2 6 -51 10 -109 4 -57 9 -106 12 -109 2 -2 5 45 6 105
l1 109 7 -110 c4 -60 8 -894 9 -1851 l1 -1741 -31 -7 c-40 -8 -167 -8 -197 0
l-22 6 4 1792 c2 1097 7 1814 13 1851 10 59 10 59 12 -47 1 -72 5 -108 12
-108 8 0 10 29 6 98 -3 58 -2 79 2 52 8 -45 8 -45 11 -10 l3 35 4 -33 c7 -51
23 -27 25 36 1 31 4 3 8 -63 l5 -120 8 100z m7594 48 c-2 -16 -4 -3 -4 27 0
30 2 43 4 28 2 -16 2 -40 0 -55z m-5367 -53 c23 -23 28 -88 8 -108 -18 -18
-322 -17 -337 2 -20 24 -10 86 17 107 22 17 42 19 158 19 121 0 136 -2 154
-20z m3434 -1 c23 -18 27 -27 24 -68 l-3 -46 -171 -3 -172 -2 -4 45 c-3 45 5
73 26 87 6 4 70 8 142 8 119 0 134 -2 158 -21z m-5311 -289 c3 14 8 43 10 65
3 32 4 29 7 -20 l3 -60 7 60 7 60 1 -57 c3 -80 22 -85 23 -6 l2 63 6 -52 c9
-73 21 -77 22 -7 0 66 16 50 20 -21 1 -39 2 -38 9 13 11 76 20 76 22 1 l1 -64
7 65 7 65 1 -52 c1 -29 7 -53 12 -53 6 0 11 24 12 53 l2 52 3 -52 c2 -29 8
-53 14 -53 5 0 9 -188 9 -489 l0 -489 -42 -4 c-24 -2 -78 -2 -120 0 l-78 5 0
452 c0 248 3 494 8 546 l7 94 5 -70 c4 -51 8 -63 13 -45z m6757 55 l7 50 3
-55 3 -55 7 55 7 55 1 -53 c1 -33 6 -51 12 -47 6 3 10 -2 10 -11 0 -35 11 -6
19 52 l9 59 1 -54 c1 -64 17 -59 30 10 l9 44 1 -64 c1 -77 13 -72 22 7 l6 57
2 -59 c1 -70 10 -68 21 6 l8 53 1 -58 c1 -73 20 -67 23 6 1 47 2 44 8 -23 4
-41 8 -808 9 -1704 l1 -1629 -67 6 c-38 4 -94 7 -125 7 l-58 0 0 1613 c0 1448
5 1895 19 1732 l5 -50 6 50z m-4939 -310 c10 -148 22 -343 28 -432 11 -142 10
-166 -4 -192 -8 -17 -15 -36 -15 -44 0 -8 -6 -20 -14 -26 -11 -10 -17 -8 -25
6 -8 14 -11 15 -12 3 -1 -8 -1 -19 0 -23 1 -5 -3 -6 -9 -2 -5 3 -10 1 -10 -4
0 -6 5 -11 10 -11 23 0 8 -15 -17 -17 -14 0 -22 2 -17 5 15 12 46 73 40 80 -4
3 -15 6 -26 7 -16 1 -17 -2 -9 -18 12 -21 4 -36 -11 -21 -13 13 -18 50 -30
249 -6 99 -17 266 -25 370 -12 169 -19 315 -16 338 1 4 34 7 74 5 l72 -3 16
-270z m3406 262 c5 -6 -13 -398 -22 -472 -2 -16 -6 -77 -10 -135 -8 -133 -24
-310 -31 -332 -3 -10 -10 -18 -16 -18 -7 0 -6 5 2 15 10 12 7 15 -14 21 -14 3
-27 14 -27 23 -1 15 -2 15 -6 0 -2 -10 -13 -19 -25 -22 -13 -4 -17 -10 -13
-19 5 -9 5 -10 -2 -3 -28 28 -35 103 -24 237 6 73 15 225 21 338 5 113 13 245
16 294 l7 88 69 -4 c38 -3 71 -8 75 -11z m-3183 -866 c25 -5 31 -13 42 -56 7
-27 13 -53 14 -57 0 -10 -146 37 -175 56 -34 23 -31 44 8 55 37 11 70 11 111
2z m2920 -7 c32 -12 15 -36 -46 -64 -35 -15 -75 -31 -90 -34 l-27 -6 15 37
c25 59 42 73 90 73 23 0 49 -3 58 -6z m143 -64 c2 -20 -8 -26 -20 -13 -4 3 -2
12 4 20 15 17 14 17 16 -7z m-3040 -84 l78 -23 0 -97 c1 -77 -2 -96 -14 -96
-7 0 -47 16 -86 35 -110 53 -184 149 -170 222 l6 32 53 -25 c30 -14 89 -35
133 -48z m2933 44 c0 -42 -28 -108 -65 -155 -33 -41 -128 -101 -144 -91 -5 3
-11 0 -14 -8 -3 -7 -14 -16 -25 -18 -18 -5 -19 0 -20 63 0 38 3 67 7 64 5 -2
8 14 8 36 0 22 3 42 6 45 3 3 40 14 84 25 43 11 94 30 113 44 46 31 50 31 50
-5z m-3260 6 c0 -3 -4 -8 -10 -11 -5 -3 -10 -1 -10 4 0 6 5 11 10 11 6 0 10
-2 10 -4z m80 -28 c0 -6 -6 -5 -15 2 -8 7 -15 14 -15 16 0 2 7 1 15 -2 8 -4
15 -11 15 -16z m359 -153 c-1 -89 -6 -74 -12 30 -2 44 -1 71 4 60 4 -11 8 -51
8 -90z m2538 13 c-2 -13 -4 -5 -4 17 -1 22 1 32 4 23 2 -10 2 -28 0 -40z
m-2706 -107 c29 -16 76 -35 103 -42 28 -6 87 -22 131 -34 44 -12 159 -38 255
-56 195 -38 191 -52 -5 -19 -187 32 -402 86 -471 120 -57 28 -144 106 -144
130 0 5 18 -8 40 -30 21 -21 63 -53 91 -69z m2970 70 c-15 -28 -67 -69 -123
-97 -101 -51 -372 -115 -593 -140 -109 -12 -51 5 106 32 179 30 418 93 486
128 27 13 66 40 88 60 47 41 49 42 36 17z m-271 -43 c0 -29 -4 -48 -9 -42 -8
8 -3 94 5 94 2 0 4 -23 4 -52z m-3700 -253 l0 -45 -580 0 -580 0 0 45 0 45
580 0 580 0 0 -45z m1655 -5 c96 0 109 -8 120 -72 5 -26 18 -53 35 -70 l28
-28 221 0 221 0 0 -163 c0 -178 4 -191 60 -199 24 -3 25 -6 28 -90 3 -83 2
-88 -17 -88 -35 0 -69 -21 -81 -51 -8 -18 -11 -80 -8 -183 l3 -155 -35 -6
c-19 -3 -93 -20 -165 -37 l-129 -31 -33 38 c-31 36 -32 40 -17 56 11 13 14 27
9 46 -5 21 -330 969 -353 1032 -4 10 -1 13 12 8 10 -4 55 -7 101 -7z m1655 -4
c0 -8 -96 -281 -220 -626 -127 -353 -157 -460 -131 -460 8 0 4 -15 -10 -40
-13 -22 -26 -40 -30 -40 -4 0 -76 16 -159 35 -83 19 -152 35 -153 35 -2 0 -1
71 1 158 5 190 0 207 -63 224 l-45 12 0 88 c0 85 1 88 23 88 12 0 33 7 45 16
21 15 22 21 22 180 l0 164 210 0 c134 0 218 4 234 11 26 12 38 35 56 106 6 23
16 44 23 46 14 6 197 9 197 3z m-4113 -116 l34 -30 162 0 163 0 29 30 29 30
193 0 193 0 0 -115 c0 -105 -2 -116 -19 -123 -11 -4 -273 -5 -583 -2 l-563 5
-3 118 -3 117 167 0 166 0 35 -30z m0 -290 l34 -30 169 0 169 0 21 30 21 30
195 0 195 0 -3 -122 -3 -123 -577 -3 -578 -2 -2 82 c-1 46 -3 102 -4 126 l-1
42 165 0 164 0 35 -30z m-2 -300 l29 -30 169 0 169 0 28 30 28 30 191 0 191 0
0 -125 0 -125 -579 0 -580 0 -3 125 -3 125 166 0 165 0 29 -30z m3349 -56 c9
-3 16 -14 16 -23 0 -14 -16 -16 -125 -16 -110 0 -125 2 -125 17 0 9 6 19 13
21 18 8 202 8 221 1z m12 -291 c-4 -10 -36 -13 -126 -13 -100 0 -120 2 -120
15 0 8 8 15 18 15 15 0 15 -2 2 -10 -10 -7 21 -10 103 -9 l117 1 0 104 c0 112
-7 127 -49 104 -17 -9 -21 -8 -21 4 0 10 13 16 38 18 l37 3 3 -109 c1 -61 0
-116 -2 -123z m-239 125 c-3 -8 -6 -5 -6 6 -1 11 2 17 5 13 3 -3 4 -12 1 -19z
m0 -70 c-3 -7 -5 -2 -5 12 0 14 2 19 5 13 2 -7 2 -19 0 -25z m-3112 -8 l38
-30 151 0 152 0 32 30 33 30 195 0 194 0 0 -339 c0 -300 -2 -340 -16 -345 -9
-3 -266 -6 -573 -6 -420 0 -560 3 -569 12 -14 14 -16 240 -5 511 l6 167 162 0
162 0 38 -30z m3145 -230 l4 75 3 -65 c6 -92 23 -102 23 -12 0 95 19 95 22 0
l2 -73 6 75 6 75 2 -62 c3 -82 22 -94 22 -14 0 84 20 77 22 -6 l2 -68 6 75 6
75 2 -67 c3 -93 21 -98 24 -6 l2 73 3 -65 c6 -94 23 -101 24 -9 1 55 3 66 9
44 4 -16 8 -184 9 -372 l1 -343 -114 0 -115 0 -3 93 c-2 50 -2 98 0 105 3 8
33 12 103 12 92 0 99 1 99 20 0 19 -7 20 -100 20 l-100 0 0 153 c0 85 3 196 8
248 l7 94 6 -75 5 -75 4 75z m-300 -64 l0 -93 -46 -7 c-25 -3 -112 -21 -192
-40 -167 -39 -605 -135 -762 -166 -58 -12 -115 -24 -128 -27 -23 -5 -23 -4
-20 77 l3 83 65 19 c100 28 925 228 999 242 36 7 69 11 74 9 4 -2 7 -46 7 -97z
m1056 40 c104 -25 232 -57 284 -70 52 -13 199 -49 325 -81 127 -31 236 -59
243 -61 8 -2 12 -28 12 -84 0 -57 -4 -80 -12 -80 -7 0 -96 19 -198 41 -102 22
-268 58 -370 79 -231 48 -495 107 -537 121 l-33 11 0 90 0 91 49 -6 c27 -3
133 -26 237 -51z m-329 -98 c-2 -13 -4 -5 -4 17 -1 22 1 32 4 23 2 -10 2 -28
0 -40z m-507 -307 c0 -132 3 -246 6 -255 5 -14 -8 -16 -104 -16 -130 0 -118
-15 -128 165 -8 135 -15 165 -44 172 -16 4 -20 14 -20 47 0 67 13 76 141 102
63 12 122 23 132 23 16 1 17 -17 17 -238z m470 213 c52 -9 101 -21 108 -26 6
-6 12 -32 12 -60 0 -39 -5 -54 -22 -67 -18 -15 -23 -36 -35 -152 -19 -198 -7
-179 -119 -179 -88 0 -96 2 -89 18 4 9 6 124 5 256 l-1 238 23 -5 c13 -3 66
-13 118 -23z m-1888 -114 l-4 -80 -39 0 -39 0 0 60 c0 57 2 61 33 80 17 11 37
20 42 20 6 0 9 -31 7 -80z m3235 48 c8 -6 13 -34 13 -69 0 -56 -1 -59 -24 -59
-51 0 -56 7 -56 86 l0 74 27 -11 c15 -6 33 -15 40 -21z m-427 -109 c129 -28
242 -55 250 -59 8 -5 22 -21 31 -37 17 -27 16 -29 -15 -65 l-32 -36 -194 -3
-195 -3 -5 49 c-5 49 -7 51 -72 95 -65 43 -75 59 -62 94 9 24 38 21 294 -35z
m3017 -10 c130 -14 183 -42 133 -69 -22 -12 -283 -80 -305 -80 -12 0 -15 17
-15 80 l0 80 45 0 c25 0 89 -5 142 -11z m-1073 -140 c39 -12 65 -26 63 -33 -3
-8 -177 -12 -652 -14 -373 -1 -645 2 -640 7 12 10 256 39 430 50 72 4 265 9
431 10 280 1 305 0 368 -20z m-3134 -298 c0 -4 -11 -6 -25 -4 -13 3 -38 0 -55
-5 -35 -13 -41 -6 -7 8 29 11 87 13 87 1z m51 -28 l24 -26 -32 23 c-34 25 -39
30 -25 30 5 0 19 -12 33 -27z"/>
<path d="M9141 8484 c0 -11 3 -14 6 -6 3 7 2 16 -1 19 -3 4 -6 -2 -5 -13z"/>
<path d="M7075 8199 c-4 -6 -3 -15 2 -20 5 -5 205 -8 489 -7 418 3 479 5 479
18 0 13 -61 15 -482 18 -341 1 -484 -1 -488 -9z"/>
<path d="M7160 8105 c0 -13 29 -15 233 -13 148 2 231 7 230 13 -2 6 -90 11
-233 13 -201 2 -230 0 -230 -13z"/>
<path d="M7160 8015 c0 -13 37 -15 270 -15 233 0 270 2 270 15 0 13 -37 15
-270 15 -233 0 -270 -2 -270 -15z"/>
<path d="M7154 7929 c-3 -6 0 -15 7 -20 8 -5 213 -7 474 -5 408 4 460 6 463
20 3 14 -45 16 -467 16 -334 0 -472 -3 -477 -11z"/>
<path d="M7153 7828 c3 -10 91 -13 397 -13 306 0 394 3 398 13 3 9 -81 12
-398 12 -317 0 -401 -3 -397 -12z"/>
<path d="M7152 7738 c4 -10 73 -14 291 -16 251 -2 287 0 287 13 0 13 -38 15
-291 15 -228 0 -290 -3 -287 -12z"/>
<path d="M7780 7735 c0 -10 11 -15 35 -15 24 0 35 5 35 15 0 10 -11 15 -35 15
-24 0 -35 -5 -35 -15z"/>
<path d="M7157 7653 c-4 -3 -2 -12 4 -20 8 -9 39 -13 105 -13 87 0 94 1 94 20
0 19 -7 20 -98 20 -54 0 -102 -3 -105 -7z"/>
<path d="M7647 7653 c-10 -3 -16 -10 -14 -16 5 -16 456 -22 471 -7 24 24 -25
30 -229 29 -115 -1 -218 -4 -228 -6z"/>
<path d="M7155 7549 c-4 -6 -3 -15 2 -20 5 -5 132 -8 304 -7 253 3 294 5 294
18 0 13 -41 15 -297 18 -208 2 -299 -1 -303 -9z"/>
<path d="M7152 7448 c4 -10 49 -14 171 -16 144 -2 167 0 167 13 0 13 -24 15
-171 15 -132 0 -170 -3 -167 -12z"/>
<path d="M7074 7249 c-3 -6 0 -15 7 -20 16 -10 548 -12 573 -3 9 3 16 12 16
20 0 12 -49 14 -294 14 -206 0 -297 -3 -302 -11z"/>
<path d="M7160 7155 c0 -13 18 -15 133 -13 174 4 172 22 -3 26 -112 2 -130 0
-130 -13z"/>
<path d="M7157 7076 c-8 -20 1 -26 39 -26 43 0 53 26 12 34 -42 8 -45 8 -51
-8z"/>
<path d="M11480 8066 c0 -2 8 -10 18 -17 15 -13 16 -12 3 4 -13 16 -21 21 -21
13z"/>
<path d="M11470 8011 c0 -5 7 -15 17 -22 15 -13 15 -12 4 9 -12 23 -21 28 -21
13z"/>
<path d="M11425 7970 c3 -5 8 -10 11 -10 2 0 4 5 4 10 0 6 -5 10 -11 10 -5 0
-7 -4 -4 -10z"/>
<path d="M5244 5859 c-9 -15 12 -33 30 -26 9 4 16 13 16 22 0 17 -35 21 -46 4z"/>
<path d="M7544 6180 c0 -13 4 -16 10 -10 7 7 7 13 0 20 -6 6 -10 3 -10 -10z"/>
<path d="M7581 6124 c0 -11 3 -14 6 -6 3 7 2 16 -1 19 -3 4 -6 -2 -5 -13z"/>
<path d="M8375 6194 c-365 -28 -482 -53 -574 -122 -27 -20 -30 -27 -19 -33 10
-6 34 1 69 20 30 16 81 36 114 45 81 20 282 44 435 52 115 6 147 15 134 36 -5
8 -71 8 -159 2z"/>
<path d="M8667 6194 c-10 -11 3 -24 24 -24 10 0 19 7 19 15 0 15 -31 21 -43 9z"/>
<path d="M8843 6185 c-3 -9 -4 -17 -2 -19 2 -1 92 -10 201 -20 233 -20 363
-45 423 -80 80 -47 106 -25 29 24 -86 54 -167 72 -444 95 -206 18 -199 18
-207 0z"/>
<path d="M7719 5987 c-26 -36 -45 -101 -73 -253 -31 -170 -32 -197 -9 -192 13
2 22 29 40 123 41 218 53 264 80 296 22 25 24 32 12 40 -22 13 -33 10 -50 -14z"/>
<path d="M9550 5996 c0 -8 9 -31 21 -50 13 -22 34 -104 55 -206 18 -94 36
-175 39 -180 10 -17 35 -11 35 8 0 10 -11 83 -25 162 -29 163 -73 280 -106
280 -11 0 -19 -6 -19 -14z"/>
<path d="M9677 5493 c-7 -11 60 -411 73 -442 8 -17 14 -20 23 -13 10 9 9 34
-6 129 -48 312 -51 328 -69 331 -9 2 -18 -1 -21 -5z"/>
<path d="M7605 5481 c-3 -5 -14 -67 -25 -138 -11 -71 -26 -162 -34 -203 -12
-65 -12 -77 0 -90 9 -9 17 -11 22 -5 5 6 19 75 31 155 13 80 28 172 35 205 7
33 11 66 8 73 -4 14 -28 16 -37 3z"/>
<path d="M7516 4963 c-42 -196 -149 -1040 -138 -1085 4 -18 27 -24 35 -10 6 8
39 373 36 388 -1 5 0 16 4 24 6 16 33 190 67 435 12 83 25 168 30 190 15 64
13 85 -9 85 -13 0 -21 -9 -25 -27z"/>
<path d="M9771 4981 c-11 -7 -10 -28 7 -127 35 -197 89 -632 107 -856 5 -53
11 -78 21 -82 8 -3 17 1 21 10 10 27 -26 383 -73 707 -24 170 -44 312 -44 316
0 19 -26 40 -39 32z"/>
<path d="M8644 4007 c-2 -7 -3 -98 -2 -202 3 -161 5 -190 18 -190 13 0 15 30
18 203 2 177 0 202 -13 202 -9 0 -18 -6 -21 -13z"/>
<path d="M7370 3735 c-9 -10 -10 -35 -5 -87 19 -191 83 -308 216 -399 113 -77
183 -95 484 -125 191 -19 789 -27 1005 -13 468 29 605 64 724 187 90 92 124
162 145 293 15 92 14 126 -5 133 -23 9 -23 8 -30 -65 -11 -118 -70 -269 -102
-262 -6 2 -9 -3 -6 -11 6 -15 -34 -48 -48 -40 -4 3 -5 -1 -3 -8 6 -15 -43 -64
-53 -54 -3 3 -2 6 2 6 4 0 0 7 -9 16 -9 9 -19 13 -23 10 -3 -4 0 -11 8 -16 11
-7 8 -11 -13 -19 -16 -6 -33 -11 -38 -11 -5 0 -9 -5 -9 -11 0 -6 7 -8 18 -4
13 5 14 4 5 -6 -18 -18 -45 7 -38 35 3 12 2 15 -1 8 -3 -6 -10 -10 -15 -6 -5
3 -9 -2 -9 -10 0 -10 -6 -13 -15 -10 -8 4 -12 11 -8 17 3 6 1 7 -5 3 -9 -5 -8
-15 4 -38 9 -18 11 -27 4 -23 -7 4 -17 1 -22 -6 -8 -11 -9 -10 -4 4 3 9 1 17
-5 17 -6 0 -7 5 -3 11 5 8 1 8 -14 0 -11 -6 -23 -16 -25 -23 -3 -8 -6 -6 -6 5
-1 9 -6 17 -12 17 -5 0 -8 -4 -4 -9 3 -5 -3 -12 -12 -14 -17 -4 -17 -5 0 -6 9
0 17 -5 17 -11 0 -5 -10 -9 -22 -7 -15 1 -22 -3 -20 -12 3 -12 0 -12 -12 -1
-9 7 -16 20 -16 29 -1 9 -7 3 -16 -14 -8 -16 -13 -23 -10 -15 2 10 -5 15 -21
16 -17 2 -23 -2 -19 -12 3 -7 1 -16 -4 -19 -4 -3 -11 9 -15 26 -5 23 -10 28
-16 18 -4 -8 -3 -19 4 -28 10 -12 9 -14 -5 -8 -11 4 -18 2 -18 -5 0 -7 -7 -3
-16 8 -8 10 -13 13 -9 6 7 -14 -32 -32 -52 -25 -9 4 -10 10 -2 25 6 11 8 22 5
25 -3 4 -11 -8 -17 -25 -11 -33 -42 -44 -52 -19 -4 10 -6 10 -6 0 -1 -7 -6
-13 -12 -13 -6 0 -8 8 -4 19 3 11 0 23 -6 27 -9 5 -10 2 -6 -9 3 -10 2 -17 -4
-17 -6 0 -7 -5 -3 -12 5 -8 -5 -9 -36 -5 -23 3 -54 1 -68 -4 -17 -6 -29 -6
-39 2 -10 9 -17 9 -25 1 -19 -19 -30 -14 -18 8 8 15 18 19 38 15 15 -3 20 -2
12 1 -8 4 -23 11 -33 16 -9 5 -17 5 -16 1 3 -20 -2 -27 -11 -13 -8 12 -10 9
-8 -10 l3 -25 -102 -1 -103 -1 0 79 c0 62 -3 80 -15 85 -24 8 -28 -2 -32 -70
-2 -34 -5 -67 -8 -74 -2 -6 1 -13 7 -15 5 -2 -17 -5 -50 -6 -51 -2 -63 1 -75
18 -13 18 -16 19 -27 5 -11 -13 -10 -14 3 -10 8 4 18 2 22 -4 4 -7 -7 -11 -30
-11 -22 0 -34 4 -30 10 3 6 1 10 -4 10 -6 0 -11 -4 -11 -10 0 -5 -7 -10 -16
-10 -13 0 -10 8 12 38 15 20 20 30 10 22 -11 -8 -22 -15 -25 -15 -3 0 -5 -5
-3 -11 1 -6 -5 -17 -13 -24 -12 -10 -18 -10 -30 0 -8 7 -15 17 -15 22 0 6 7 5
15 -2 17 -14 20 -3 5 20 -9 13 -12 13 -21 -3 -6 -10 -16 -14 -22 -10 -7 3 -4
-2 5 -13 16 -18 15 -19 -10 -19 -15 0 -31 3 -37 6 -5 3 -20 4 -33 3 -16 -1
-22 3 -18 13 3 8 6 17 6 19 0 3 5 2 10 -1 6 -4 7 -11 4 -17 -4 -7 -2 -8 5 -4
9 6 9 11 0 23 -11 13 -15 12 -29 -7 -18 -24 -34 -16 -19 11 7 14 6 17 -3 14
-8 -3 -18 -15 -23 -27 -12 -27 -35 -36 -35 -14 0 9 -4 16 -10 16 -5 0 -10 -4
-10 -10 0 -5 -9 -10 -20 -10 -12 0 -20 7 -20 16 0 13 3 14 14 5 9 -8 16 -8 20
-2 4 5 -8 16 -24 25 -30 15 -31 14 -25 -7 5 -20 4 -19 -9 3 -9 14 -15 19 -16
12 0 -8 -5 -10 -12 -6 -7 4 -2 -5 11 -19 l23 -26 -28 4 c-16 2 -32 4 -35 4
-14 2 -19 35 -7 43 10 7 9 9 -2 5 -8 -2 -15 -14 -14 -26 0 -15 -5 -21 -20 -20
-12 0 -15 3 -8 6 6 2 12 12 12 21 0 11 -3 13 -8 5 -5 -8 -12 -8 -26 3 -18 12
-15 19 7 15 4 0 7 3 7 9 0 15 -9 12 -37 -10 -14 -11 -30 -17 -36 -13 -6 4 -8
0 -4 -10 4 -11 2 -14 -9 -10 -7 3 -14 9 -14 14 0 5 -5 9 -11 9 -5 0 -7 -4 -4
-10 3 -5 -3 -10 -15 -10 -12 0 -19 4 -16 8 8 13 -11 35 -24 27 -9 -6 -9 -9 1
-16 11 -7 10 -9 -3 -9 -20 0 -24 15 -7 26 8 4 7 9 -2 16 -9 6 -4 7 16 3 17 -3
23 -2 15 1 -8 4 -23 11 -34 16 -12 7 -16 7 -12 0 3 -6 2 -13 -4 -17 -6 -4 -8
-10 -5 -15 3 -4 -2 -10 -10 -14 -8 -3 -17 0 -21 6 -4 6 -3 8 3 5 15 -9 27 43
14 56 -7 7 -9 4 -6 -11 5 -30 -27 -47 -55 -30 -11 7 -20 16 -20 21 0 4 4 6 9
2 5 -3 12 -1 16 5 3 5 1 10 -6 10 -8 0 -8 4 1 15 9 11 9 15 1 15 -6 0 -14 -7
-17 -15 -4 -8 -10 -12 -15 -9 -5 3 -6 -3 -2 -12 5 -13 3 -15 -8 -9 -59 37
-149 134 -175 191 -28 59 -44 136 -44 209 0 59 -18 86 -40 60z m2135 -525 c-3
-5 -12 -10 -18 -10 -7 0 -6 4 3 10 19 12 23 12 15 0z m-1576 -13 c8 -10 7 -14
-4 -14 -8 0 -16 6 -19 14 -3 7 -2 13 3 13 5 0 14 -6 20 -13z"/>
<path d="M8647 3424 c-14 -14 -7 -35 11 -32 9 2 17 10 17 17 0 16 -18 25 -28
15z"/>
<path d="M7567 3391 c-4 -17 -3 -21 5 -13 5 5 8 16 6 23 -3 8 -7 3 -11 -10z"/>
<path d="M9725 3380 c-3 -5 -1 -10 4 -10 6 0 11 5 11 10 0 6 -2 10 -4 10 -3 0
-8 -4 -11 -10z"/>
<path d="M9755 3380 c-3 -5 -1 -10 4 -10 6 0 11 5 11 10 0 6 -2 10 -4 10 -3 0
-8 -4 -11 -10z"/>
<path d="M7628 3351 c5 -14 4 -14 -13 -1 -10 8 -16 10 -12 3 4 -6 3 -14 -3
-18 -5 -3 -10 -10 -10 -15 0 -13 29 -20 36 -8 4 6 3 8 -4 4 -6 -3 -13 -2 -17
4 -6 10 4 12 53 13 28 1 28 3 -7 20 -27 13 -29 13 -23 -2z"/>
<path d="M9705 3350 c3 -5 8 -10 11 -10 2 0 4 5 4 10 0 6 -5 10 -11 10 -5 0
-7 -4 -4 -10z"/>
<path d="M7688 3319 c-2 -15 1 -35 9 -45 12 -17 13 -17 12 2 -1 10 -4 30 -8
44 l-7 25 -6 -26z"/>
<path d="M9617 3324 c-3 -4 1 -13 9 -21 8 -9 18 -12 22 -8 4 4 1 10 -6 12 -6
3 -10 9 -6 14 6 10 -9 12 -19 3z"/>
<path d="M7860 3306 c0 -2 8 -10 18 -17 15 -13 16 -12 3 4 -13 16 -21 21 -21
13z"/>
<path d="M7966 3277 c3 -10 9 -15 12 -12 3 3 0 11 -7 18 -10 9 -11 8 -5 -6z"/>
<path d="M9446 3273 c-6 -14 -5 -15 5 -6 7 7 10 15 7 18 -3 3 -9 -2 -12 -12z"/>
<path d="M9479 3273 c-13 -16 -12 -17 4 -4 9 7 17 15 17 17 0 8 -8 3 -21 -13z"/>
<path d="M7675 3270 c-3 -5 -1 -10 4 -10 6 0 11 5 11 10 0 6 -2 10 -4 10 -3 0
-8 -4 -11 -10z"/>
<path d="M7855 3260 c-4 -11 -10 -18 -15 -15 -4 3 -14 -3 -21 -12 -12 -15 -12
-16 4 -10 10 4 25 7 34 7 9 0 13 6 10 14 -3 8 -1 16 6 19 8 2 8 5 0 10 -7 4
-14 -1 -18 -13z"/>
<path d="M9116 3248 c3 -5 10 -6 15 -3 13 9 11 12 -6 12 -8 0 -12 -4 -9 -9z"/>
<path d="M9319 3243 c-13 -17 -13 -17 6 -3 11 8 22 16 24 17 2 2 0 3 -6 3 -6
0 -17 -8 -24 -17z"/>
<path d="M7880 3240 c0 -5 5 -10 10 -10 6 0 10 5 10 10 0 6 -4 10 -10 10 -5 0
-10 -4 -10 -10z"/>
<path d="M8090 3237 c0 -8 7 -14 15 -14 11 0 12 4 4 14 -6 7 -13 13 -15 13 -2
0 -4 -6 -4 -13z"/>
<path d="M9407 3243 c-10 -9 -9 -23 1 -23 5 0 9 7 9 15 0 17 -1 18 -10 8z"/>
<path d="M9086 3228 c3 -5 10 -6 15 -3 13 9 11 12 -6 12 -8 0 -12 -4 -9 -9z"/>
<path d="M8147 3210 c6 -21 21 -35 29 -27 6 6 -18 47 -27 47 -4 0 -5 -9 -2
-20z"/>
<path d="M8315 3220 c-4 -6 -11 -8 -16 -5 -5 3 -6 -1 -3 -9 3 -9 1 -16 -5 -16
-6 0 -8 -7 -5 -15 4 -8 11 -15 16 -15 6 0 8 6 5 14 -3 7 1 23 9 35 8 11 13 21
10 21 -3 0 -8 -5 -11 -10z"/>
<path d="M8820 3220 c0 -5 5 -10 11 -10 5 0 7 5 4 10 -3 6 -8 10 -11 10 -2 0
-4 -4 -4 -10z"/>
<path d="M8985 3210 c-4 -6 -12 -7 -18 -4 -7 4 -8 3 -4 -1 13 -15 37 -14 37 1
0 16 -6 18 -15 4z"/>
<path d="M9240 3216 c0 -2 7 -6 15 -10 8 -3 15 -1 15 4 0 6 -7 10 -15 10 -8 0
-15 -2 -15 -4z"/>
<path d="M8010 3200 c0 -5 5 -10 11 -10 5 0 7 5 4 10 -3 6 -8 10 -11 10 -2 0
-4 -4 -4 -10z"/>
<path d="M8465 3200 c3 -5 8 -10 11 -10 2 0 4 5 4 10 0 6 -5 10 -11 10 -5 0
-7 -4 -4 -10z"/>
<path d="M8587 3197 c-3 -8 -1 -20 4 -28 6 -10 9 -7 9 14 0 29 -5 35 -13 14z"/>
<path d="M8716 3198 c3 -5 9 -6 14 -3 4 3 11 -1 13 -7 4 -10 6 -10 6 0 1 6 5
12 11 12 5 0 7 -6 4 -14 -6 -16 19 -16 33 -1 4 4 3 5 -4 2 -6 -4 -13 -1 -15 5
-3 7 -19 13 -36 14 -17 0 -29 -3 -26 -8z"/>
<path d="M9140 3200 c0 -5 7 -10 16 -10 8 0 12 5 9 10 -3 6 -10 10 -16 10 -5
0 -9 -4 -9 -10z"/>
<path d="M9015 3190 c-3 -6 1 -7 9 -4 18 7 21 14 7 14 -6 0 -13 -4 -16 -10z"/>
<path d="M8850 3181 c0 -6 4 -13 10 -16 6 -3 7 1 4 9 -7 18 -14 21 -14 7z"/>
<path d="M9040 3180 c-13 -8 -12 -10 3 -10 9 0 17 5 17 10 0 12 -1 12 -20 0z"/>
<path d="M10998 5573 c12 -2 30 -2 40 0 9 3 -1 5 -23 4 -22 0 -30 -2 -17 -4z"/>
<path d="M5160 5325 c0 -9 6 -12 15 -9 8 4 15 7 15 9 0 2 -7 5 -15 9 -9 3 -15
0 -15 -9z"/>
<path d="M12857 5186 c-8 -19 1 -26 35 -26 21 0 28 5 28 20 0 15 -7 20 -29 20
-16 0 -31 -6 -34 -14z"/>
<path d="M11704 5129 c-10 -17 13 -36 27 -22 12 12 4 33 -11 33 -5 0 -12 -5
-16 -11z"/>
<path d="M6676 5175 c4 -8 8 -15 10 -15 2 0 4 7 4 15 0 8 -4 15 -10 15 -5 0
-7 -7 -4 -15z"/>
<path d="M12583 4600 c0 -25 2 -35 4 -22 2 12 2 32 0 45 -2 12 -4 2 -4 -23z"/>
<path d="M12421 4574 c0 -11 3 -14 6 -6 3 7 2 16 -1 19 -3 4 -6 -2 -5 -13z"/>
<path d="M12453 2994 c-7 -18 11 -39 26 -30 17 11 13 46 -4 46 -9 0 -18 -7
-22 -16z"/>
<path d="M4823 4610 c0 -30 2 -43 4 -27 2 15 2 39 0 55 -2 15 -4 2 -4 -28z"/>
<path d="M4911 4610 c-1 -30 2 -50 9 -50 5 0 10 22 10 50 0 28 -4 50 -8 50 -5
0 -9 -22 -11 -50z"/>
<path d="M4943 4600 c0 -25 2 -35 4 -22 2 12 2 32 0 45 -2 12 -4 2 -4 -23z"/>
<path d="M4930 3275 c-10 -12 -9 -16 5 -21 19 -8 40 9 31 25 -10 15 -21 14
-36 -4z"/>
<path d="M7002 3438 c8 -22 13 -26 19 -16 5 7 4 14 -1 16 -6 2 -8 7 -5 12 3 4
-2 10 -9 13 -12 5 -13 0 -4 -25z"/>
<path d="M5888 2762 c-21 -24 7 -33 98 -30 74 3 89 6 92 20 3 14 -9 17 -88 20
-66 2 -95 -1 -102 -10z"/>
<path d="M5864 2459 c-12 -21 21 -29 106 -27 72 3 85 6 88 21 3 15 -6 17 -92
17 -59 0 -97 -4 -102 -11z"/>
<path d="M5854 2159 c-14 -23 17 -30 122 -27 94 3 109 5 112 21 3 15 -7 17
-112 17 -72 0 -117 -4 -122 -11z"/>
<path d="M3974 1045 c-4 -9 -2 -21 4 -27 15 -15 44 -1 40 19 -4 23 -36 29 -44
8z"/>
</g>
</svg>
