<svg width="314" height="68" viewBox="0 0 314 68" fill="none" xmlns="http://www.w3.org/2000/svg">
<path d="M96.1601 16.826C97.7871 16.2786 99.6367 15.9999 101.716 15.9999C104.202 15.9999 106.325 16.281 108.097 16.8303C109.678 17.3206 110.999 17.8487 112.068 18.4107L110.043 24.2462C109.125 23.7901 108.124 23.3884 107.044 23.0398C105.702 22.5564 104.102 22.3241 102.257 22.3241C100.209 22.3241 98.6032 22.6267 97.5509 23.3355C96.4854 24.039 95.972 25.1525 95.972 26.5535C95.972 27.3789 96.1587 28.1201 96.5661 28.7406C96.9407 29.3111 97.4488 29.8194 98.0731 30.2719L98.0906 30.2846L98.1089 30.2959C98.7474 30.692 99.4563 31.0652 100.234 31.4167L100.249 31.4237L100.265 31.4297C101.061 31.7348 101.928 32.0586 102.866 32.4011C104.798 33.1555 106.471 33.907 107.889 34.6545L107.9 34.66C109.294 35.3581 110.425 36.1754 111.306 37.1043L111.314 37.1126C112.224 38.0362 112.895 39.1163 113.333 40.3586C113.77 41.6003 113.999 43.1383 113.999 44.9896C113.999 48.5119 112.838 51.1909 110.547 53.1103C108.245 55.0012 104.704 55.9998 99.821 55.9998C98.1862 55.9998 96.7214 55.8871 95.424 55.6653L95.4083 55.6631C94.0949 55.4759 92.9321 55.2339 91.9175 54.939C90.9284 54.6409 90.0715 54.3269 89.3439 53.9985C88.8376 53.7581 88.3897 53.5293 87.999 53.312L89.9791 47.4284C91.0122 47.9657 92.2137 48.4572 93.5793 48.9052L93.5945 48.9097C95.3237 49.425 97.4032 49.6756 99.821 49.6756C101.037 49.6756 102.063 49.5794 102.884 49.3733L102.902 49.3679C103.736 49.1283 104.437 48.8185 104.981 48.4214L104.993 48.4124L105.005 48.4027C105.546 47.9639 105.948 47.4365 106.174 46.8152C106.385 46.238 106.485 45.6076 106.485 44.9325C106.485 43.3999 105.785 42.1532 104.497 41.2178C103.265 40.2852 101.21 39.3306 98.3921 38.3401C97.1837 37.8903 95.9747 37.3842 94.7651 36.8217C93.5881 36.237 92.5367 35.5275 91.6081 34.6943C90.6935 33.8361 89.9468 32.8169 89.3675 31.6321C88.8062 30.4469 88.5122 28.9901 88.5122 27.2384C88.5122 25.4925 88.8224 23.951 89.4288 22.601L89.4314 22.5953C90.0431 21.1978 90.9072 20.0191 92.0272 19.053C93.1479 18.0862 94.5177 17.3421 96.149 16.8298L96.1601 16.826Z" fill="#001128"/>
<path d="M272.989 29.1096C274.886 28.3746 277.067 27.9997 279.544 27.9997C281.179 27.9997 282.665 28.1371 284.006 28.4069L284.024 28.4101C285.182 28.6141 286.312 28.9055 287.413 29.2843L285.9 34.3988C285.233 34.1999 284.524 34.0214 283.774 33.8629C282.715 33.6391 281.543 33.53 280.263 33.53C277.482 33.53 275.285 34.2968 273.805 35.917L273.798 35.9242C272.401 37.5009 271.734 39.5453 271.734 41.9996C271.734 44.5748 272.351 46.6607 273.675 48.1773L273.682 48.1849C275.107 49.7634 277.494 50.4693 280.622 50.4693C281.742 50.4693 282.936 50.378 284.203 50.198C285.184 50.0587 286.11 49.8549 286.979 49.5851L287.998 54.7996C287.102 55.0943 286.018 55.3588 284.739 55.5898C283.234 55.8617 281.563 55.9996 279.724 55.9996C276.915 55.9996 274.531 55.6388 272.556 54.9371C270.562 54.1935 268.932 53.2046 267.651 51.9775C266.405 50.7461 265.476 49.2964 264.866 47.6201C264.289 45.8911 263.998 44.0188 263.998 41.9996C263.998 40.0629 264.345 38.2541 265.033 36.5685C265.761 34.8486 266.791 33.3741 268.12 32.137L268.126 32.1311C269.455 30.8598 271.073 29.8521 272.989 29.1096Z" fill="#001128"/>
<path d="M298.989 29.1096C300.886 28.3746 303.067 27.9997 305.545 27.9997C307.179 27.9997 308.665 28.1371 310.006 28.4069L310.024 28.4101C311.182 28.6141 312.312 28.9055 313.413 29.2843L311.901 34.3988C311.233 34.1999 310.524 34.0214 309.774 33.8629C308.715 33.6391 307.543 33.53 306.263 33.53C303.482 33.53 301.285 34.2968 299.805 35.917L299.798 35.9242C298.401 37.5009 297.734 39.5453 297.734 41.9996C297.734 44.5748 298.351 46.6607 299.676 48.1773L299.682 48.1849C301.107 49.7634 303.494 50.4693 306.623 50.4693C307.742 50.4693 308.936 50.378 310.203 50.198C311.184 50.0587 312.11 49.8549 312.979 49.5851L313.998 54.7996C313.102 55.0943 312.018 55.3588 310.739 55.5898C309.234 55.8617 307.563 55.9996 305.724 55.9996C302.915 55.9996 300.531 55.6388 298.556 54.9371C296.562 54.1935 294.932 53.2046 293.651 51.9775C292.405 50.7461 291.476 49.2964 290.866 47.6201C290.289 45.8911 289.998 44.0188 289.998 41.9996C289.998 40.0629 290.345 38.2541 291.033 36.5685C291.761 34.8486 292.791 33.3741 294.12 32.137L294.126 32.1311C295.456 30.8598 297.073 29.8521 298.989 29.1096Z" fill="#001128"/>
<path fill-rule="evenodd" clip-rule="evenodd" d="M246.03 15.9999H237.961L221.998 55.9998H230.277C230.678 54.7065 231.11 53.3818 231.575 52.0256L231.58 52.0116C232.135 50.5074 232.67 49.0032 233.185 47.4991L233.334 47.0659H250.364L252.061 52.0186C252.562 53.3767 253.015 54.7037 253.421 55.9998H261.998L246.03 15.9999ZM241.734 22.8421L242.39 24.4789C242.63 25.0783 242.949 25.8953 243.347 26.9287C243.744 27.9596 244.2 29.1487 244.716 30.4959C245.276 31.853 245.854 33.3475 246.452 34.979C247.049 36.6089 247.666 38.3181 248.303 40.1065L248.605 40.9553H235.032L235.335 40.1065C235.971 38.3181 236.588 36.6089 237.186 34.979L237.19 34.9663C237.826 33.3394 238.402 31.8519 238.919 30.5034C239.436 29.1532 239.893 27.9616 240.291 26.9287C240.687 25.8997 240.981 25.096 241.176 24.5138L241.734 22.8421Z" fill="#001128"/>
<path d="M212.939 26.7536C215.002 26.2565 217.303 26.0051 219.844 26.0051C221.784 25.9403 224.756 26.537 225.999 26.8435L223.64 32.6524C223.462 32.6172 223.28 32.582 223.094 32.5469C222.006 32.3014 220.845 32.1803 219.613 32.1803C219.034 32.1803 218.35 32.2428 217.566 32.3622C216.828 32.4419 216.227 32.5447 215.787 32.6793L215.329 32.8191V56.0002H207.999V28.1166C209.416 27.6335 211.059 27.1794 212.931 26.7556L212.939 26.7536Z" fill="#001128"/>
<path fill-rule="evenodd" clip-rule="evenodd" d="M182.12 29.8186C183.349 28.5622 184.748 27.6147 186.321 26.9707C187.941 26.3225 189.591 26.0002 191.274 26.0002C195.254 26.0002 198.33 27.248 200.58 29.6915L200.584 29.695C202.824 32.0925 203.998 35.6905 203.998 40.6046C203.998 41.0779 203.98 41.61 203.944 42.2018C203.923 42.5253 203.902 42.8297 203.881 43.1152H185.085L185.162 43.8393C185.366 45.7575 186.254 47.3004 187.803 48.4262C189.347 49.5479 191.372 50.0748 193.816 50.0748C195.363 50.0748 196.875 49.9398 198.351 49.6688L198.363 49.6662C199.494 49.4349 200.482 49.1678 201.319 48.8613L202.214 54.4023C201.877 54.5446 201.465 54.6914 200.976 54.8415C200.272 55.0576 199.472 55.2399 198.574 55.3869L198.559 55.3894L198.544 55.3926C197.684 55.5759 196.748 55.7234 195.735 55.8344C194.727 55.9449 193.719 56.0002 192.711 56.0002C190.159 56.0002 187.961 55.6142 186.102 54.8611C184.265 54.1019 182.744 53.0793 181.525 51.7994C180.341 50.4788 179.448 48.924 178.85 47.1266C178.284 45.3146 177.998 43.3493 177.998 41.2263C177.998 38.6534 178.375 36.4419 179.111 34.5773C179.894 32.648 180.9 31.0668 182.12 29.8186ZM191.385 31.643C190.392 31.643 189.5 31.8248 188.731 32.2152C187.992 32.5535 187.364 33.0231 186.859 33.626C186.363 34.2181 185.976 34.9087 185.694 35.6899L185.688 35.7091C185.456 36.4217 185.282 37.1534 185.166 37.904L185.05 38.6592H197.369L197.334 37.971C197.294 37.2027 197.157 36.4534 196.921 35.7246C196.713 34.9671 196.36 34.2877 195.864 33.6931C195.396 33.0871 194.789 32.5999 194.058 32.2253C193.313 31.8234 192.41 31.643 191.385 31.643Z" fill="#001128"/>
<path fill-rule="evenodd" clip-rule="evenodd" d="M156.237 26.1674C157.334 26.0557 158.372 26.0002 159.353 26.0002C161.704 26.0002 163.778 26.3685 165.587 27.0907L165.597 27.0947C167.411 27.7829 168.928 28.7734 170.159 30.0624L170.165 30.0688C171.394 31.32 172.332 32.8644 172.974 34.7157L172.978 34.726C173.655 36.5771 173.999 38.6602 173.999 40.9836C173.999 43.2433 173.726 45.2836 173.188 47.1098C172.65 48.9358 171.866 50.4886 170.845 51.7796C169.829 53.0643 168.568 54.063 167.057 54.779C165.557 55.489 163.813 55.8532 161.808 55.8532C160.697 55.8532 159.667 55.7438 158.714 55.5282C157.751 55.3103 156.824 55.0018 155.934 54.6028L155.023 54.1946V68.0002H147.999V27.5437C148.607 27.3747 149.289 27.2159 150.045 27.0679L150.057 27.0656L150.068 27.0628C151.016 26.8401 152.002 26.6541 153.026 26.5052C154.09 26.3558 155.153 26.2441 156.217 26.1694L156.237 26.1674ZM159.297 31.9284C158.538 31.9284 157.83 31.9667 157.174 32.0444C156.535 32.0832 155.992 32.1418 155.551 32.2234L155.023 32.3212V48.4918L155.314 48.6828C155.907 49.0708 156.644 49.3781 157.505 49.6173L157.512 49.6192C158.42 49.8604 159.332 49.9818 160.246 49.9818C162.383 49.9818 164.076 49.2365 165.206 47.6844C166.308 46.1706 166.808 43.9785 166.808 41.2109C166.808 38.5082 166.212 36.2763 164.953 34.5791C163.658 32.795 161.736 31.9284 159.297 31.9284Z" fill="#001128"/>
<path d="M117.998 42.2764V26.0002H125.633V41.2202C125.633 44.0627 126.012 46.2458 126.871 47.6548C127.799 49.1782 129.501 49.8511 131.72 49.8511C132.377 49.8511 133.071 49.8312 133.805 49.7915L133.823 49.7905L133.842 49.7885C134.569 49.7097 135.219 49.6306 135.789 49.5512L136.363 49.4714V26.0002H143.998V54.3965C142.583 54.7654 140.808 55.1075 138.666 55.4206L138.656 55.4223C136.286 55.8071 133.794 56.0002 131.179 56.0002C128.545 56.0002 126.389 55.655 124.685 54.9916C123.01 54.3233 121.704 53.4072 120.742 52.2547C119.765 51.0451 119.062 49.6077 118.641 47.9304C118.214 46.2284 117.998 44.3449 117.998 42.2764Z" fill="#001128"/>
<path d="M0.000597462 67.9999L12.0006 56.0001V16H32.0005V8.00007C32.0005 5.79093 30.2097 4.00007 28.0005 4.00007L4 4.00006C1.79084 4.00006 -2.19979e-05 5.79095 2.02659e-10 8.0001L0.000597462 67.9999Z" fill="url(#paint0_linear_3006_5598)"/>
<path d="M0.00292969 68H60.0026C62.2117 68 64.0026 66.2092 64.0026 64L64.0028 40.0001C64.0028 37.7909 62.2119 36.0001 60.0028 36.0001H52.0028V56L12.0006 56.0001L0.00292969 68Z" fill="url(#paint1_linear_3006_5598)"/>
<path d="M36.001 4V32H64.0009C66.2101 32 68.0009 30.2091 68.0009 28V4.00004C68.0009 1.7909 66.2101 3.93476e-05 64.0009 3.6031e-05L40.001 0C37.7918 -3.31657e-06 36.001 1.79086 36.001 4Z" fill="url(#paint2_linear_3006_5598)"/>
<defs>
<linearGradient id="paint0_linear_3006_5598" x1="34.0006" y1="1.06402e-06" x2="14.4391" y2="52.1647" gradientUnits="userSpaceOnUse">
<stop stop-color="#2CADFF"/>
<stop offset="1" stop-color="#11F1FF"/>
</linearGradient>
<linearGradient id="paint1_linear_3006_5598" x1="68.0011" y1="2.97149e-10" x2="0.000716929" y2="68.0011" gradientUnits="userSpaceOnUse">
<stop stop-color="#4B61FF"/>
<stop offset="1" stop-color="#6B10FF"/>
</linearGradient>
<linearGradient id="paint2_linear_3006_5598" x1="57.001" y1="32.0001" x2="43.0009" y2="6.50003" gradientUnits="userSpaceOnUse">
<stop stop-color="#4769FF"/>
<stop offset="1" stop-color="#3498FF"/>
</linearGradient>
</defs>
</svg>
